<?xml version="1.0" standalone="no"?>
<!DOCTYPE svg PUBLIC "-//W3C//DTD SVG 20010904//EN"
 "http://www.w3.org/TR/2001/REC-SVG-20010904/DTD/svg10.dtd">
<svg version="1.0" xmlns="http://www.w3.org/2000/svg"
 width="700.000000pt" height="700.000000pt" viewBox="0 0 700.000000 700.000000"
 preserveAspectRatio="xMidYMid meet">
<metadata>
Created by potrace 1.14, written by Peter Selinger 2001-2017
</metadata>
<g transform="translate(0.000000,700.000000) scale(0.100000,-0.100000)"
fill="#000000" stroke="none">
<path d="M3459 6646 c-2 -2 -40 -7 -84 -10 -89 -8 -96 -9 -245 -37 -204 -39
-381 -92 -591 -180 -268 -111 -390 -173 -579 -297 -222 -144 -343 -243 -535
-437 -198 -200 -372 -430 -505 -670 -115 -207 -213 -440 -275 -655 -19 -67
-37 -135 -40 -151 -3 -16 -12 -59 -21 -96 -8 -37 -17 -83 -20 -103 -2 -19 -9
-60 -14 -90 -5 -30 -12 -86 -15 -125 -3 -38 -8 -90 -10 -115 -5 -60 -5 -353 0
-410 2 -25 7 -74 10 -110 3 -36 8 -76 11 -90 2 -14 6 -41 8 -60 5 -43 32 -182
53 -270 66 -283 206 -626 354 -869 24 -39 49 -80 54 -89 127 -216 420 -547
644 -728 13 -10 28 -24 35 -30 17 -16 196 -147 241 -175 22 -14 66 -43 98 -64
80 -51 343 -183 447 -224 260 -103 548 -178 780 -206 25 -3 77 -9 115 -14 90
-11 489 -11 580 0 39 4 92 11 119 14 28 3 59 8 70 10 12 2 37 7 56 10 19 2 46
7 60 10 142 28 189 40 275 66 55 16 107 31 115 33 76 19 402 156 535 224 133
68 301 169 333 200 8 6 23 17 35 23 11 7 26 16 31 20 6 5 36 28 66 51 30 24
57 45 60 48 3 3 34 29 70 59 87 73 282 272 338 346 25 33 49 62 52 65 5 5 69
90 111 150 28 39 90 139 133 214 30 52 25 52 -39 1 -128 -101 -263 -177 -415
-232 -91 -33 -316 -95 -390 -107 -19 -3 -44 -7 -55 -10 -210 -42 -632 -38
-875 9 -866 167 -1572 734 -1905 1530 -81 193 -149 431 -171 595 -3 19 -6 45
-9 57 -29 163 -27 492 5 711 69 489 292 968 620 1336 162 183 387 370 601 501
58 35 315 160 424 205 168 70 183 78 164 84 -21 7 -151 35 -194 42 -21 3 -46
7 -55 9 -10 2 -40 6 -67 10 -26 4 -59 9 -73 12 -31 6 -515 15 -521 9z"/>
</g>
</svg>
