<?xml version="1.0" encoding="UTF-8" standalone="no"?>
<!-- Created with Inkscape (http://www.inkscape.org/) -->

<svg
   width="111.367mm"
   height="78.697998mm"
   viewBox="0 0 111.36699 78.697998"
   version="1.1"
   id="svg5"
   inkscape:version="1.2.2 (b0a8486541, 2022-12-01)"
   sodipodi:docname="pillars_of_warcraft.svg"
   xmlns:inkscape="http://www.inkscape.org/namespaces/inkscape"
   xmlns:sodipodi="http://sodipodi.sourceforge.net/DTD/sodipodi-0.dtd"
   xmlns="http://www.w3.org/2000/svg"
   xmlns:svg="http://www.w3.org/2000/svg">
  <sodipodi:namedview
     id="namedview7"
     pagecolor="#ffffff"
     bordercolor="#666666"
     borderopacity="1.0"
     inkscape:showpageshadow="2"
     inkscape:pageopacity="0.0"
     inkscape:pagecheckerboard="0"
     inkscape:deskcolor="#d1d1d1"
     inkscape:document-units="mm"
     showgrid="false"
     inkscape:zoom="1.0796969"
     inkscape:cx="163.00871"
     inkscape:cy="175.51222"
     inkscape:window-width="1920"
     inkscape:window-height="1006"
     inkscape:window-x="0"
     inkscape:window-y="0"
     inkscape:window-maximized="1"
     inkscape:current-layer="text1066" />
  <defs
     id="defs2" />
  <g
     inkscape:label="Layer 1"
     inkscape:groupmode="layer"
     id="layer1"
     transform="translate(-39.373779,-109.18125)">
    <rect
       style="opacity:0.958124;fill:#cccccc;stroke:none;stroke-width:2.03009;stroke-dasharray:none"
       id="rect1338"
       width="111.367"
       height="78.697998"
       x="39.373779"
       y="109.18125" />
    <g
       id="g1215"
       transform="translate(3.9998216,4.5000933)">
      <path
         id="path286"
         style="opacity:0.958124;fill:none;stroke:#000000;stroke-width:1.5"
         inkscape:transform-center-y="-7.1483001"
         transform="matrix(0.69500091,0,0,0.69500091,45.381678,109.10759)"
         d="m 101.47533,81.738062 -71.258718,0 35.629358,-61.711859 z" />
      <g
         aria-label="War"
         id="text1004"
         style="font-weight:bold;font-size:6.35px;line-height:1.25;font-family:'Alegreya Sans';-inkscape-font-specification:'Alegreya Sans Bold';stroke-width:0.264583">
        <path
           d="m 90.157263,120.0228 h -0.9017 l -0.6096,-1.9558 h -0.05715 l -0.61595,1.9558 h -0.90805 l -1.143,-4.0894 h 0.84455 l 0.0635,0.50165 0.7239,2.69875 h 0.05715 l 0.69215,-2.20345 -0.2921,-0.99695 h 0.8763 l 0.09525,0.59055 0.7366,2.60985 h 0.05715 l 0.8255,-2.6416 0.1016,-0.5588 h 0.8001 z"
           id="path567" />
        <path
           d="m 92.722667,117.0129 q 0.48895,0 0.762,0.22225 0.2794,0.2159 0.2794,0.6096 0,0.1143 -0.0381,0.7239 -0.0063,0.1778 -0.01905,0.3683 -0.0127,0.18415 -0.0127,0.3175 0,0.10795 0.03175,0.1524 0.03175,0.0381 0.1143,0.0381 0.0635,0 0.1651,-0.0254 l 0.0635,0.0508 -0.0762,0.4445 q -0.2032,0.13335 -0.46355,0.15875 -0.1905,-0.019 -0.3175,-0.13335 -0.127,-0.12065 -0.17145,-0.3302 h -0.04445 q -0.3175,0.33655 -0.65405,0.4699 -0.4572,-0.006 -0.71755,-0.2413 -0.26035,-0.23495 -0.26035,-0.64135 0,-0.3175 0.15875,-0.4953 0.1651,-0.18415 0.4953,-0.24765 l 0.97155,-0.18415 v -0.26035 q 0,-0.41275 -0.4064,-0.41275 -0.19685,0 -0.4191,0.0889 -0.2159,0.0889 -0.48895,0.2794 l -0.0635,-0.0381 -0.09525,-0.5588 q 0.27305,-0.17145 0.5842,-0.26035 0.31115,-0.0952 0.6223,-0.0952 z m -0.41275,1.8288 q -0.1016,0.0254 -0.1524,0.0889 -0.04445,0.0572 -0.04445,0.1778 0,0.1651 0.0889,0.26035 0.0889,0.0889 0.24765,0.0889 0.24765,0 0.5207,-0.2921 l 0.0127,-0.4699 z"
           id="path569" />
        <path
           d="m 96.208819,117.0637 q 0.05715,0 0.15875,0.0127 v 0.78105 l -0.0889,0.0318 q -0.10795,-0.0444 -0.23495,-0.0444 -0.3683,0 -0.66675,0.47625 v 0.40005 l 0.04445,1.30175 h -0.84455 l 0.0508,-1.2192 -0.0381,-1.6764 0.8001,-0.0699 -0.0063,0.57785 h 0.0508 q 0.31115,-0.5715 0.7747,-0.5715 z"
           id="path571" />
      </g>
      <g
         aria-label="Exploration"
         id="text1008"
         style="font-weight:bold;font-size:6.35px;line-height:1.25;font-family:'Alegreya Sans';-inkscape-font-specification:'Alegreya Sans Bold';stroke-width:0.264583">
        <path
           d="m 41.945529,171.69914 0.0508,0.0699 -0.05715,0.64135 h -2.5654 l 0.04445,-1.2192 -0.04445,-2.8702 h 2.5908 l 0.0508,0.0699 -0.0635,0.64135 -0.9779,-0.0317 -0.7366,0.006 -0.01905,0.98425 0.70485,0.0127 0.66675,-0.019 0.0508,0.0635 -0.05715,0.64135 -0.7239,-0.019 -0.65405,0.006 -0.0064,0.43815 0.01905,0.61595 0.71755,0.006 z"
           id="path544" />
        <path
           d="m 43.228234,169.78779 0.4064,0.6604 0.40005,-0.6858 0.15875,-0.29845 h 0.74295 l -0.8509,1.4478 0.889,1.4732 -0.889,0.0635 -0.14605,-0.37465 -0.4191,-0.67945 -0.43815,0.71755 -0.1397,0.29845 h -0.74295 l 0.85725,-1.47955 -0.8636,-1.4478 0.9017,-0.0445 z"
           id="path546" />
        <path
           d="m 46.987437,169.41949 q 0.55245,0 0.8509,0.37465 0.29845,0.37465 0.29845,1.06045 0,0.7747 -0.38735,1.20015 -0.381,0.4191 -1.0795,0.4191 -0.2032,0 -0.42545,-0.0381 l 0.01905,1.14935 h -0.8382 l 0.04445,-2.39395 -0.0381,-1.6764 0.80645,-0.0699 -0.0064,0.4318 h 0.04445 q 0.1778,-0.17145 0.3429,-0.27305 0.1651,-0.10795 0.3683,-0.18415 z m -0.31115,2.5019 q 0.3302,0 0.50165,-0.23495 0.17145,-0.23495 0.17145,-0.69215 0,-0.4445 -0.14605,-0.66675 -0.1397,-0.2286 -0.4191,-0.2286 -0.27305,0 -0.55245,0.27305 l -0.0063,0.7366 0.0127,0.71755 q 0.2286,0.0952 0.43815,0.0952 z"
           id="path548" />
        <path
           d="m 49.540134,171.10859 0.04445,1.30175 h -0.84455 l 0.04445,-1.22555 -0.0381,-3.16865 0.84455,-0.0635 z"
           id="path550" />
        <path
           d="m 51.610237,169.40044 q 0.6477,0 0.9906,0.381 0.3429,0.381 0.3429,1.09855 0,0.7747 -0.3683,1.18745 -0.3683,0.4064 -1.06045,0.4064 -0.6477,0 -0.9906,-0.381 -0.3429,-0.381 -0.3429,-1.09855 0,-0.7747 0.3683,-1.1811 0.3683,-0.41275 1.06045,-0.41275 z m -0.05715,0.5715 q -0.3048,0 -0.4445,0.2032 -0.13335,0.2032 -0.13335,0.65405 0,0.5842 0.1397,0.83185 0.1397,0.24765 0.4572,0.24765 0.3048,0 0.43815,-0.19685 0.1397,-0.2032 0.1397,-0.6604 0,-0.57785 -0.14605,-0.8255 -0.1397,-0.254 -0.45085,-0.254 z"
           id="path552" />
        <path
           d="m 55.11543,169.45124 q 0.05715,0 0.15875,0.0127 v 0.78105 l -0.0889,0.0317 q -0.10795,-0.0444 -0.23495,-0.0444 -0.3683,0 -0.66675,0.47625 v 0.40005 l 0.04445,1.30175 h -0.84455 l 0.0508,-1.2192 -0.0381,-1.6764 0.8001,-0.0699 -0.0064,0.57785 h 0.0508 q 0.31115,-0.5715 0.7747,-0.5715 z"
           id="path554" />
        <path
           d="m 56.791826,169.40044 q 0.48895,0 0.762,0.22225 0.2794,0.2159 0.2794,0.6096 0,0.1143 -0.0381,0.7239 -0.0064,0.1778 -0.01905,0.3683 -0.0127,0.18415 -0.0127,0.3175 0,0.10795 0.03175,0.1524 0.03175,0.0381 0.1143,0.0381 0.0635,0 0.1651,-0.0254 l 0.0635,0.0508 -0.0762,0.4445 q -0.2032,0.13335 -0.46355,0.15875 -0.1905,-0.019 -0.3175,-0.13335 -0.127,-0.12065 -0.17145,-0.3302 h -0.04445 q -0.3175,0.33655 -0.65405,0.4699 -0.4572,-0.006 -0.71755,-0.2413 -0.26035,-0.23495 -0.26035,-0.64135 0,-0.3175 0.15875,-0.4953 0.1651,-0.18415 0.4953,-0.24765 l 0.97155,-0.18415 v -0.26035 q 0,-0.41275 -0.4064,-0.41275 -0.19685,0 -0.4191,0.0889 -0.2159,0.0889 -0.48895,0.2794 l -0.0635,-0.0381 -0.09525,-0.5588 q 0.27305,-0.17145 0.5842,-0.26035 0.31115,-0.0952 0.6223,-0.0952 z m -0.41275,1.8288 q -0.1016,0.0254 -0.1524,0.0889 -0.04445,0.0572 -0.04445,0.1778 0,0.1651 0.0889,0.26035 0.0889,0.0889 0.24765,0.0889 0.24765,0 0.5207,-0.2921 l 0.0127,-0.4699 z"
           id="path556" />
        <path
           d="m 59.877932,171.78804 q 0.2032,0 0.42545,-0.10795 l 0.06985,0.0635 -0.08255,0.50165 q -0.32385,0.1651 -0.6604,0.2032 -0.85725,-0.0889 -0.85725,-0.8382 l 0.03175,-0.52705 -0.0064,-1.0922 h -0.3937 l -0.03175,-0.0445 0.04445,-0.46355 h 0.37465 v -0.48895 l 0.76835,-0.24765 0.05715,0.0508 -0.01905,0.6858 h 0.75565 l 0.0254,0.0445 -0.0381,0.46355 h -0.75565 l -0.0381,1.4224 q 0,0.2032 0.0762,0.2921 0.0762,0.0825 0.254,0.0825 z"
           id="path558" />
        <path
           d="m 60.887577,171.19114 -0.03175,-1.6764 0.83185,-0.0699 -0.0381,1.6637 0.0381,1.30175 h -0.84455 z m 0.40005,-3.18135 q 0.19685,0 0.3048,0.1143 0.1143,0.1143 0.1143,0.3175 0,0.2159 -0.12065,0.3429 -0.12065,0.127 -0.3302,0.127 -0.20955,0 -0.32385,-0.1143 -0.10795,-0.1143 -0.10795,-0.32385 0,-0.20955 0.12065,-0.33655 0.127,-0.127 0.3429,-0.127 z"
           id="path560" />
        <path
           d="m 63.713326,169.40044 q 0.6477,0 0.9906,0.381 0.3429,0.381 0.3429,1.09855 0,0.7747 -0.3683,1.18745 -0.3683,0.4064 -1.06045,0.4064 -0.6477,0 -0.9906,-0.381 -0.3429,-0.381 -0.3429,-1.09855 0,-0.7747 0.3683,-1.1811 0.3683,-0.41275 1.06045,-0.41275 z m -0.05715,0.5715 q -0.3048,0 -0.4445,0.2032 -0.13335,0.2032 -0.13335,0.65405 0,0.5842 0.1397,0.83185 0.1397,0.24765 0.4572,0.24765 0.3048,0 0.43815,-0.19685 0.1397,-0.2032 0.1397,-0.6604 0,-0.57785 -0.14605,-0.8255 -0.1397,-0.254 -0.45085,-0.254 z"
           id="path562" />
        <path
           d="m 67.402669,170.56884 q 0.0063,-0.22225 -0.1016,-0.3429 -0.1016,-0.127 -0.29845,-0.127 -0.28575,0 -0.6096,0.27305 v 0.7366 l 0.0381,1.30175 h -0.84455 l 0.04445,-1.2192 -0.03175,-1.6764 0.8001,-0.0699 v 0.4318 h 0.04445 q 0.34925,-0.3175 0.762,-0.4572 0.4826,0 0.7366,0.22225 0.254,0.2159 0.2413,0.62865 l -0.01905,0.84455 0.0381,1.2954 h -0.8509 z"
           id="path564" />
      </g>
      <g
         aria-label="Cosmic lore"
         id="text1062"
         style="font-weight:bold;font-size:6.35px;line-height:1.25;font-family:'Alegreya Sans';-inkscape-font-specification:'Alegreya Sans Bold';stroke-width:0.264583">
        <path
           d="m 116.1537,168.27014 q 0.5969,0 1.07315,0.24765 l -0.1524,0.71755 -0.0699,0.0317 q -0.1905,-0.13335 -0.4191,-0.20955 -0.2286,-0.0762 -0.4699,-0.0762 -1.00965,0 -1.00965,1.32715 0,0.71755 0.26035,1.0795 0.2667,0.3556 0.7747,0.3556 0.23495,0 0.4826,-0.0699 0.254,-0.0762 0.4572,-0.2032 l 0.0762,0.0445 -0.0699,0.73025 q -0.4826,0.22225 -1.016,0.22225 -0.9144,0 -1.397,-0.5334 -0.47625,-0.5334 -0.47625,-1.53035 0,-1.016 0.508,-1.5748 0.51435,-0.5588 1.4478,-0.5588 z"
           id="path523" />
        <path
           d="m 118.81435,169.40044 q 0.6477,0 0.9906,0.381 0.3429,0.381 0.3429,1.09855 0,0.7747 -0.3683,1.18745 -0.3683,0.4064 -1.06045,0.4064 -0.6477,0 -0.9906,-0.381 -0.3429,-0.381 -0.3429,-1.09855 0,-0.7747 0.3683,-1.1811 0.3683,-0.41275 1.06045,-0.41275 z m -0.0572,0.5715 q -0.3048,0 -0.4445,0.2032 -0.13335,0.2032 -0.13335,0.65405 0,0.5842 0.1397,0.83185 0.1397,0.24765 0.4572,0.24765 0.3048,0 0.43815,-0.19685 0.1397,-0.2032 0.1397,-0.6604 0,-0.57785 -0.14605,-0.8255 -0.1397,-0.254 -0.45085,-0.254 z"
           id="path525" />
        <path
           d="m 121.7163,169.40679 q 0.4318,0 0.8128,0.14605 l -0.1143,0.6223 -0.1016,0.0317 q -0.18415,-0.12065 -0.3683,-0.18415 -0.18415,-0.0635 -0.32385,-0.0635 -0.1524,0 -0.2413,0.0825 -0.0889,0.0762 -0.0889,0.1905 0,0.13335 0.1143,0.2159 0.12065,0.0825 0.37465,0.18415 0.254,0.1016 0.4191,0.19685 0.1651,0.0952 0.2794,0.2667 0.12065,0.1651 0.12065,0.41275 0,0.254 -0.13335,0.47625 -0.127,0.2159 -0.3937,0.3556 -0.2667,0.13335 -0.65405,0.13335 -0.4572,0 -0.94615,-0.1905 l 0.0953,-0.6604 0.0825,-0.0508 q 0.19685,0.1651 0.43815,0.2667 0.2413,0.0952 0.42545,0.0952 0.17145,0 0.2667,-0.0825 0.0953,-0.0889 0.0953,-0.20955 0,-0.13335 -0.12065,-0.2159 -0.1143,-0.0825 -0.3683,-0.18415 -0.26035,-0.1143 -0.42545,-0.2032 -0.1651,-0.0952 -0.28575,-0.2667 -0.1143,-0.17145 -0.1143,-0.42545 0,-0.41275 0.31115,-0.6731 0.31115,-0.2667 0.84455,-0.2667 z"
           id="path527" />
        <path
           d="m 126.70105,172.41034 0.0508,-1.8415 q 0,-0.4699 -0.40005,-0.4699 -0.28575,0 -0.5969,0.254 l -0.0191,0.762 0.0381,1.2954 h -0.84455 l 0.0508,-1.8415 q 0.006,-0.2286 -0.1016,-0.34925 -0.1016,-0.12065 -0.29845,-0.12065 -0.2794,0 -0.61595,0.2667 v 0.74295 l 0.0381,1.30175 h -0.8382 l 0.0444,-1.2192 -0.0318,-1.6764 0.79375,-0.0699 v 0.4318 h 0.0444 q 0.34925,-0.3175 0.76835,-0.4572 0.7112,0 0.90805,0.47625 h 0.0381 q 0.36195,-0.33655 0.8255,-0.47625 0.4826,0 0.73025,0.22225 0.254,0.2159 0.2413,0.62865 l -0.0191,0.84455 0.0381,1.2954 z"
           id="path529" />
        <path
           d="m 128.3457,171.19114 -0.0317,-1.6764 0.83185,-0.0699 -0.0381,1.6637 0.0381,1.30175 h -0.84455 z m 0.40005,-3.18135 q 0.19685,0 0.3048,0.1143 0.1143,0.1143 0.1143,0.3175 0,0.2159 -0.12065,0.3429 -0.12065,0.127 -0.3302,0.127 -0.20955,0 -0.32385,-0.1143 -0.10795,-0.1143 -0.10795,-0.32385 0,-0.20955 0.12065,-0.33655 0.127,-0.127 0.3429,-0.127 z"
           id="path531" />
        <path
           d="m 131.15874,169.40044 q 0.20955,0 0.41275,0.0444 0.20955,0.0381 0.3683,0.1143 l -0.1397,0.6731 -0.0699,0.0317 q -0.32385,-0.1778 -0.57785,-0.1778 -0.2921,0 -0.45085,0.20955 -0.15875,0.20955 -0.15875,0.5969 0,0.4445 0.17145,0.67945 0.17145,0.23495 0.48895,0.23495 0.28575,0 0.635,-0.15875 l 0.0635,0.0508 -0.0825,0.65405 q -0.381,0.12065 -0.78105,0.12065 -0.6096,0 -0.9525,-0.3937 -0.3429,-0.40005 -0.3429,-1.11125 0,-0.7366 0.37465,-1.14935 0.37465,-0.4191 1.0414,-0.4191 z"
           id="path533" />
        <path
           d="m 134.17499,171.10859 0.0444,1.30175 h -0.84455 l 0.0445,-1.22555 -0.0381,-3.16865 0.84455,-0.0635 z"
           id="path535" />
        <path
           d="m 136.24509,169.40044 q 0.6477,0 0.9906,0.381 0.3429,0.381 0.3429,1.09855 0,0.7747 -0.3683,1.18745 -0.3683,0.4064 -1.06045,0.4064 -0.6477,0 -0.9906,-0.381 -0.3429,-0.381 -0.3429,-1.09855 0,-0.7747 0.3683,-1.1811 0.3683,-0.41275 1.06045,-0.41275 z m -0.0572,0.5715 q -0.3048,0 -0.4445,0.2032 -0.13335,0.2032 -0.13335,0.65405 0,0.5842 0.1397,0.83185 0.1397,0.24765 0.4572,0.24765 0.3048,0 0.43815,-0.19685 0.1397,-0.2032 0.1397,-0.6604 0,-0.57785 -0.14605,-0.8255 -0.1397,-0.254 -0.45085,-0.254 z"
           id="path537" />
        <path
           d="m 139.75029,169.45124 q 0.0572,0 0.15875,0.0127 v 0.78105 l -0.0889,0.0317 q -0.10795,-0.0444 -0.23495,-0.0444 -0.3683,0 -0.66675,0.47625 v 0.40005 l 0.0444,1.30175 h -0.84455 l 0.0508,-1.2192 -0.0381,-1.6764 0.8001,-0.0699 -0.006,0.57785 h 0.0508 q 0.31115,-0.5715 0.7747,-0.5715 z"
           id="path539" />
        <path
           d="m 142.61413,171.03874 -1.7145,0.0127 q 0.0572,0.79375 0.80645,0.79375 0.37465,0 0.8763,-0.22225 l 0.0699,0.0445 -0.127,0.62865 q -0.4826,0.1778 -0.90805,0.1778 -0.6985,0 -1.09855,-0.4064 -0.3937,-0.4064 -0.3937,-1.12395 0,-0.7112 0.38735,-1.12395 0.38735,-0.4191 1.04775,-0.4191 0.56515,0 0.86995,0.31115 0.31115,0.3048 0.31115,0.85725 0,0.14605 -0.0317,0.3683 z m -0.6096,-0.56515 q 0,-0.254 -0.12065,-0.381 -0.12065,-0.13335 -0.3429,-0.13335 -0.24765,0 -0.41275,0.1651 -0.15875,0.15875 -0.20955,0.46355 l 1.07315,-0.0254 z"
           id="path541" />
      </g>
      <g
         aria-label="Lothar"
         id="text1066"
         style="font-weight:500;font-size:5.64444px;line-height:1.25;font-family:'Alegreya Sans';-inkscape-font-specification:'Alegreya Sans Medium';stroke-width:0.264583">
        <path
           d="m 86.104199,112.70902 -0.04515,0.43463 h -1.862665 l 0.03951,-1.08938 -0.03951,-2.53435 h 0.59831 l -0.03387,2.48355 0.01129,0.65475 h 1.292577 z"
           id="path510" />
        <path
           d="m 87.475802,110.49076 q 0.547511,0 0.841022,0.34431 0.299155,0.33867 0.299155,0.9652 0,0.67169 -0.316089,1.03293 -0.316088,0.36125 -0.897466,0.36125 -0.54751,0 -0.846666,-0.33867 -0.293511,-0.34431 -0.293511,-0.97084 0,-0.67169 0.316089,-1.03294 0.316089,-0.36124 0.897466,-0.36124 z m -0.03387,0.40075 q -0.643466,0 -0.643466,0.86925 0,0.53058 0.158045,0.78458 0.158044,0.254 0.485421,0.254 0.321734,0 0.479778,-0.21449 0.158044,-0.21449 0.158044,-0.65476 0,-0.53058 -0.158044,-0.78458 -0.158044,-0.254 -0.479778,-0.254 z"
           id="path512" />
        <path
           d="m 90.15127,112.70902 q 0.186267,0 0.395111,-0.1016 l 0.05644,0.0395 -0.05644,0.36124 q -0.310444,0.14676 -0.575733,0.16933 -0.349955,-0.0564 -0.508,-0.23142 -0.158044,-0.18062 -0.158044,-0.51929 l 0.02258,-0.4064 -0.0056,-1.10066 h -0.355599 l -0.02258,-0.0339 0.02822,-0.33302 h 0.344311 v -0.41205 l 0.508,-0.19191 0.0508,0.0452 -0.01129,0.5588 h 0.722488 l 0.02258,0.0395 -0.02822,0.32738 h -0.728132 l -0.02822,1.41675 q -0.0056,0.20885 0.06773,0.29351 0.07902,0.079 0.259644,0.079 z"
           id="path514" />
        <path
           d="m 92.730777,111.43338 q 0.0056,-0.21449 -0.1016,-0.33302 -0.1016,-0.12418 -0.299155,-0.12418 -0.321733,0 -0.677333,0.33867 l -0.01129,0.68297 0.03951,1.14583 h -0.575733 l 0.03951,-1.09503 -0.03387,-2.82222 0.575733,-0.0451 -0.02822,1.7272 h 0.03387 q 0.333022,-0.29351 0.694266,-0.40076 0.434622,0 0.654755,0.19756 0.225778,0.19755 0.220133,0.56444 l -0.01129,0.73378 0.02258,1.14018 H 92.69691 Z"
           id="path516" />
        <path
           d="m 94.977263,110.49076 q 0.389466,0 0.615243,0.18627 0.225778,0.18626 0.225778,0.51928 0,0.1016 -0.03387,0.67734 -0.03387,0.56444 -0.03387,0.6604 0,0.10724 0.03387,0.1524 0.03951,0.0395 0.129823,0.0395 0.05644,0 0.169333,-0.0226 l 0.0508,0.0395 -0.05644,0.31609 q -0.163688,0.1016 -0.355599,0.12418 -0.174978,-0.0169 -0.282222,-0.12418 -0.107245,-0.11289 -0.129823,-0.29351 h -0.03951 q -0.287866,0.3048 -0.587021,0.42333 -0.389467,-0.006 -0.615244,-0.2032 -0.220134,-0.19755 -0.220134,-0.53622 0,-0.50236 0.547511,-0.62653 l 0.891822,-0.19756 0.0056,-0.3048 q 0,-0.20884 -0.107244,-0.31609 -0.1016,-0.10724 -0.299156,-0.10724 -0.191911,0 -0.383821,0.0903 -0.191911,0.0847 -0.423333,0.27093 l -0.04516,-0.0282 -0.07338,-0.40075 q 0.496711,-0.33867 1.016,-0.33867 z m -0.423334,1.64253 q -0.101599,0.0226 -0.146755,0.079 -0.04515,0.0508 -0.04515,0.16369 0,0.16934 0.09031,0.26529 0.09596,0.096 0.253999,0.096 0.265289,0 0.564444,-0.34431 l 0.01693,-0.43463 z"
           id="path518" />
        <path
           d="m 97.951882,110.53591 q 0.06209,0 0.141111,0.0113 v 0.54751 l -0.06209,0.0169 q -0.09031,-0.0282 -0.208844,-0.0282 -0.174978,0 -0.327378,0.12982 -0.1524,0.12982 -0.293511,0.41769 l -0.0056,0.37253 0.03387,1.14018 h -0.575733 l 0.03951,-1.08938 -0.03387,-1.4732 0.547511,-0.0508 -0.0056,0.51929 h 0.03951 q 0.152399,-0.27093 0.338666,-0.38947 0.186266,-0.12418 0.372533,-0.12418 z"
           id="path520" />
      </g>
      <g
         aria-label="Thrall"
         id="text1070"
         style="font-weight:500;font-size:5.64444px;line-height:1.25;font-family:'Alegreya Sans';-inkscape-font-specification:'Alegreya Sans Medium';stroke-width:0.264583">
        <path
           d="m 66.443199,140.26232 -0.03387,0.44027 -0.654755,-0.0339 h -0.304799 l -0.02822,2.02635 0.02822,1.14018 h -0.587022 l 0.03387,-1.08938 -0.02822,-2.07715 h -0.3048 l -0.666043,0.0339 -0.03951,-0.0508 0.04516,-0.44027 h 2.506131 z"
           id="path497" />
        <path
           d="m 68.571163,142.12499 q 0.0056,-0.21449 -0.1016,-0.33303 -0.1016,-0.12417 -0.299156,-0.12417 -0.321733,0 -0.677333,0.33866 l -0.01129,0.68298 0.03951,1.14582 h -0.575733 l 0.03951,-1.09502 -0.03387,-2.82222 0.575733,-0.0452 -0.02822,1.7272 h 0.03387 q 0.333022,-0.29351 0.694266,-0.40075 0.434622,0 0.654755,0.19755 0.225777,0.19756 0.220133,0.56445 l -0.01129,0.73377 0.02258,1.14018 h -0.575733 z"
           id="path499" />
        <path
           d="m 71.139384,141.22752 q 0.06209,0 0.141111,0.0113 v 0.54751 l -0.06209,0.0169 q -0.09031,-0.0282 -0.208844,-0.0282 -0.174978,0 -0.327378,0.12982 -0.1524,0.12982 -0.293511,0.41769 l -0.0056,0.37253 0.03387,1.14018 h -0.575733 l 0.03951,-1.08938 -0.03387,-1.47319 0.547511,-0.0508 -0.0056,0.51928 h 0.03951 q 0.1524,-0.27093 0.338667,-0.38946 0.186266,-0.12418 0.372533,-0.12418 z"
           id="path501" />
        <path
           d="m 72.601291,141.18236 q 0.389466,0 0.615244,0.18627 0.225777,0.18627 0.225777,0.51929 0,0.1016 -0.03387,0.67733 -0.03387,0.56445 -0.03387,0.6604 0,0.10725 0.03387,0.1524 0.03951,0.0395 0.129822,0.0395 0.05644,0 0.169333,-0.0226 l 0.0508,0.0395 -0.05644,0.31608 q -0.163689,0.1016 -0.3556,0.12418 -0.174978,-0.0169 -0.282222,-0.12418 -0.107245,-0.11288 -0.129822,-0.29351 h -0.03951 q -0.287867,0.3048 -0.587022,0.42334 -0.389467,-0.006 -0.615244,-0.2032 -0.220133,-0.19756 -0.220133,-0.53623 0,-0.50235 0.54751,-0.62653 l 0.891822,-0.19755 0.0056,-0.3048 q 0,-0.20885 -0.107244,-0.31609 -0.1016,-0.10725 -0.299155,-0.10725 -0.191911,0 -0.383822,0.0903 -0.191911,0.0847 -0.423333,0.27094 l -0.04516,-0.0282 -0.07338,-0.40076 q 0.496711,-0.33867 1.016,-0.33867 z m -0.423333,1.64254 q -0.1016,0.0226 -0.146756,0.079 -0.04515,0.0508 -0.04515,0.16369 0,0.16933 0.09031,0.26529 0.09596,0.096 0.254,0.096 0.265288,0 0.564444,-0.34431 l 0.01693,-0.43462 z"
           id="path503" />
        <path
           d="m 74.88164,142.68943 0.03951,1.14582 h -0.575733 l 0.03951,-1.09502 -0.03387,-2.82222 0.575733,-0.0452 z"
           id="path505" />
        <path
           d="m 76.315326,142.68943 0.03951,1.14582 h -0.575733 l 0.03951,-1.09502 -0.03387,-2.82222 0.575733,-0.0452 z"
           id="path507" />
      </g>
      <g
         aria-label="Archimonde"
         id="text1074"
         style="font-weight:500;font-size:5.64444px;line-height:1.25;font-family:'Alegreya Sans';-inkscape-font-specification:'Alegreya Sans Medium';stroke-width:0.264583">
        <path
           d="m 108.76099,143.83525 h -0.59831 l -0.0847,-0.4064 -0.15804,-0.50235 -0.76765,-0.0169 -0.69426,0.0169 -0.16934,0.47413 -0.0903,0.43462 h -0.58137 l 1.29257,-3.62373 h 0.68298 z m -0.98778,-1.38289 -0.51929,-1.67075 h -0.0395 l -0.59266,1.67075 0.57008,0.0113 z"
           id="path476" />
        <path
           d="m 110.5277,141.22752 q 0.0621,0 0.14111,0.0113 v 0.54751 l -0.0621,0.0169 q -0.0903,-0.0282 -0.20884,-0.0282 -0.17498,0 -0.32738,0.12982 -0.1524,0.12982 -0.29351,0.41769 l -0.006,0.37253 0.0339,1.14018 h -0.57573 l 0.0395,-1.08938 -0.0339,-1.47319 0.54752,-0.0508 -0.006,0.51928 h 0.0395 q 0.1524,-0.27093 0.33867,-0.38946 0.18626,-0.12418 0.37253,-0.12418 z"
           id="path478" />
        <path
           d="m 112.10814,141.18236 q 0.18062,0 0.36689,0.0395 0.18627,0.0395 0.32738,0.10724 l -0.096,0.47978 -0.0564,0.0226 q -0.29916,-0.17497 -0.55316,-0.17497 -0.29915,0 -0.46848,0.22577 -0.16934,0.22578 -0.16934,0.63218 0,0.43462 0.17498,0.67733 0.17498,0.23707 0.49671,0.23707 0.28222,0 0.60396,-0.16933 l 0.0508,0.0339 -0.0565,0.46285 q -0.34431,0.12982 -0.68862,0.12982 -0.53058,0 -0.82973,-0.34995 -0.29351,-0.3556 -0.29351,-0.97649 0,-0.64347 0.31608,-1.01036 0.31609,-0.36689 0.87489,-0.36689 z"
           id="path480" />
        <path
           d="m 114.92471,142.12499 q 0.006,-0.21449 -0.1016,-0.33303 -0.10159,-0.12417 -0.29915,-0.12417 -0.32173,0 -0.67733,0.33866 l -0.0113,0.68298 0.0395,1.14582 h -0.57573 l 0.0395,-1.09502 -0.0339,-2.82222 0.57573,-0.0452 -0.0282,1.7272 h 0.0339 q 0.33302,-0.29351 0.69426,-0.40075 0.43463,0 0.65476,0.19755 0.22578,0.19756 0.22013,0.56445 l -0.0113,0.73377 0.0226,1.14018 h -0.57573 z"
           id="path482" />
        <path
           d="m 116.27373,142.74587 -0.0169,-1.47319 0.56444,-0.0508 -0.0226,1.47319 0.0169,1.14018 h -0.56444 z m 0.27094,-2.72626 q 0.14111,0 0.22013,0.0847 0.079,0.079 0.079,0.22577 0,0.1524 -0.0847,0.24271 -0.0847,0.0903 -0.23143,0.0903 -0.14675,0 -0.23142,-0.0847 -0.079,-0.0847 -0.079,-0.23142 0,-0.14676 0.0847,-0.23707 0.0903,-0.0903 0.24271,-0.0903 z"
           id="path484" />
        <path
           d="m 120.86831,142.12499 q 0.006,-0.21449 -0.1016,-0.33303 -0.1016,-0.12417 -0.29916,-0.12417 -0.32173,0 -0.66604,0.32737 l -0.0113,0.69991 0.0282,1.14018 h -0.58138 l 0.0395,-1.71026 q 0.006,-0.21449 -0.1016,-0.33303 -0.1016,-0.12417 -0.29916,-0.12417 -0.32738,0 -0.67733,0.33866 l -0.006,0.68862 0.0339,1.14018 h -0.57573 l 0.0339,-1.08938 -0.0282,-1.47319 0.54751,-0.0508 -0.006,0.37817 h 0.0395 q 0.33302,-0.29351 0.69427,-0.40075 0.31608,0 0.51928,0.11289 0.20885,0.10724 0.29351,0.31044 h 0.0339 q 0.34431,-0.29916 0.74507,-0.42333 0.43462,0 0.65475,0.19755 0.22578,0.19756 0.22014,0.56445 l -0.0169,0.73377 0.0282,1.14018 h -0.57573 z"
           id="path486" />
        <path
           d="m 123.19946,141.18236 q 0.54751,0 0.84102,0.34431 0.29916,0.33867 0.29916,0.9652 0,0.67169 -0.31609,1.03294 -0.31609,0.36124 -0.89747,0.36124 -0.54751,0 -0.84667,-0.33867 -0.29351,-0.34431 -0.29351,-0.97084 0,-0.67169 0.31609,-1.03293 0.31609,-0.36125 0.89747,-0.36125 z m -0.0339,0.40076 q -0.64346,0 -0.64346,0.86924 0,0.53058 0.15804,0.78458 0.15804,0.254 0.48542,0.254 0.32173,0 0.47978,-0.21449 0.15804,-0.21449 0.15804,-0.65475 0,-0.53058 -0.15804,-0.78458 -0.15805,-0.254 -0.47978,-0.254 z"
           id="path488" />
        <path
           d="m 126.54097,142.12499 q 0.006,-0.21449 -0.1016,-0.33303 -0.1016,-0.12417 -0.29915,-0.12417 -0.32738,0 -0.67733,0.33866 l -0.006,0.68862 0.0339,1.14018 h -0.57573 l 0.0339,-1.08938 -0.0282,-1.47319 0.54751,-0.0508 -0.006,0.37817 h 0.0395 q 0.33302,-0.29351 0.69426,-0.40075 0.43463,0 0.65476,0.19755 0.22578,0.19756 0.22013,0.56445 l -0.0169,0.73377 0.0282,1.14018 h -0.58138 z"
           id="path490" />
        <path
           d="m 129.89942,142.68943 0.0169,0.54187 q 0.006,0.10724 0.0339,0.14675 0.0282,0.0395 0.11288,0.0395 0.0621,0 0.17498,-0.0226 l 0.0508,0.0395 -0.0564,0.31608 q -0.16369,0.1016 -0.3556,0.12418 -0.17498,-0.0169 -0.28787,-0.11853 -0.10724,-0.10725 -0.13547,-0.27658 h -0.0451 q -0.16369,0.14111 -0.29351,0.23142 -0.12982,0.0847 -0.28787,0.15805 -0.56444,0 -0.86924,-0.34431 -0.29916,-0.34996 -0.29916,-0.98214 0,-0.64911 0.33867,-0.99906 0.33867,-0.3556 0.94262,-0.3556 0.19756,0 0.44027,0.0452 l -0.0113,-1.31515 0.57009,-0.0452 z m -1.016,-1.10631 q -0.32174,0 -0.508,0.22013 -0.18063,0.22014 -0.18063,0.65476 0,0.4572 0.16934,0.69991 0.16933,0.24271 0.47413,0.24271 0.14111,0 0.27093,-0.0677 0.12983,-0.0677 0.27658,-0.23143 l 0.0113,-0.36124 -0.0169,-1.02729 q -0.27094,-0.12982 -0.49671,-0.12982 z"
           id="path492" />
        <path
           d="m 132.71035,142.55961 -1.58609,0.006 q 0.006,0.42898 0.20884,0.65476 0.2032,0.22013 0.57574,0.22013 0.37817,0 0.762,-0.23142 l 0.0564,0.0339 -0.0847,0.46285 q -0.41204,0.18062 -0.80151,0.18062 -0.58137,0 -0.9144,-0.3556 -0.32737,-0.36124 -0.32737,-0.98213 0,-0.62653 0.32737,-0.99342 0.32738,-0.36689 0.88618,-0.36689 0.47413,0 0.72813,0.25964 0.25965,0.25965 0.25965,0.73378 0,0.12982 -0.0282,0.31044 z m -0.42898,-0.44591 q 0,-0.25965 -0.12418,-0.39511 -0.11853,-0.14112 -0.34995,-0.14112 -0.25965,0 -0.42898,0.16934 -0.16933,0.16369 -0.22578,0.46849 l 1.1176,-0.0226 z"
           id="path494" />
      </g>
      <g
         aria-label="Brann
Bronzebeard"
         id="text1111"
         style="font-weight:500;font-size:5.64444px;line-height:1;font-family:'Alegreya Sans';-inkscape-font-specification:'Alegreya Sans Medium';text-align:center;text-anchor:middle;stroke-width:0.264583">
        <path
           d="m 86.454152,170.52508 q 0.378178,0.079 0.5588,0.29916 0.186266,0.21449 0.186266,0.57008 0,1.03858 -1.552221,1.03858 -0.536222,0 -0.880533,-0.0226 h -0.0056 l 0.03951,-1.08937 -0.03951,-2.53436 1.128888,-0.006 q 0.524933,0 0.812799,0.23142 0.293511,0.22578 0.293511,0.6604 0,0.3048 -0.141111,0.52493 -0.141111,0.21449 -0.400755,0.32738 z m -0.05644,-0.78458 q 0,-0.27093 -0.1524,-0.38946 -0.1524,-0.11854 -0.513644,-0.11854 h -0.383822 l -0.01693,1.11196 0.581378,0.0169 q 0.248355,-0.0621 0.366888,-0.20884 0.118534,-0.1524 0.118534,-0.41205 z m -0.654755,2.24085 q 0.417688,0 0.643466,-0.15805 0.225777,-0.15804 0.225777,-0.46284 0,-0.48542 -0.626532,-0.57009 l -0.6604,0.006 -0.0056,0.47414 0.01693,0.69426 q 0.220133,0.0169 0.4064,0.0169 z"
           id="path443" />
        <path
           d="m 89.061892,169.80259 q 0.06209,0 0.141111,0.0113 v 0.54751 l -0.06209,0.0169 q -0.09031,-0.0282 -0.208845,-0.0282 -0.174977,0 -0.327377,0.12983 -0.1524,0.12982 -0.293511,0.41768 l -0.0056,0.37254 0.03387,1.14017 H 87.76367 l 0.03951,-1.08937 -0.03387,-1.4732 0.54751,-0.0508 -0.0056,0.51929 h 0.03951 q 0.1524,-0.27094 0.338666,-0.38947 0.186267,-0.12418 0.372534,-0.12418 z"
           id="path445" />
        <path
           d="m 90.523798,169.75744 q 0.389467,0 0.615244,0.18626 0.225778,0.18627 0.225778,0.51929 0,0.1016 -0.03387,0.67734 -0.03387,0.56444 -0.03387,0.66039 0,0.10725 0.03387,0.1524 0.03951,0.0395 0.129822,0.0395 0.05644,0 0.169334,-0.0226 l 0.0508,0.0395 -0.05644,0.31609 q -0.163689,0.1016 -0.3556,0.12418 -0.174977,-0.0169 -0.282222,-0.12418 -0.107244,-0.11289 -0.129822,-0.29351 h -0.03951 q -0.287866,0.3048 -0.587022,0.42333 -0.389466,-0.006 -0.615244,-0.2032 -0.220133,-0.19756 -0.220133,-0.53622 0,-0.50236 0.547511,-0.62653 l 0.891822,-0.19756 0.0056,-0.3048 q 0,-0.20884 -0.107244,-0.31609 -0.1016,-0.10724 -0.299156,-0.10724 -0.191911,0 -0.383822,0.0903 -0.191911,0.0847 -0.423333,0.27093 l -0.04516,-0.0282 -0.07338,-0.40076 q 0.496711,-0.33866 1.015999,-0.33866 z m -0.423333,1.64253 q -0.1016,0.0226 -0.146755,0.079 -0.04516,0.0508 -0.04516,0.16369 0,0.16933 0.09031,0.26529 0.09596,0.0959 0.254,0.0959 0.265289,0 0.564444,-0.34431 l 0.01693,-0.43462 z"
           id="path447" />
        <path
           d="m 93.825795,170.70006 q 0.0056,-0.21449 -0.1016,-0.33302 -0.101599,-0.12418 -0.299155,-0.12418 -0.327377,0 -0.677333,0.33867 l -0.0056,0.68862 0.03387,1.14017 h -0.575732 l 0.03387,-1.08937 -0.02822,-1.4732 0.547511,-0.0508 -0.0056,0.37818 h 0.03951 q 0.333022,-0.29352 0.694267,-0.40076 0.434621,0 0.654755,0.19756 0.225777,0.19755 0.220133,0.56444 l -0.01693,0.73378 0.02822,1.14017 h -0.581378 z"
           id="path449" />
        <path
           d="m 96.721396,170.70006 q 0.0056,-0.21449 -0.1016,-0.33302 -0.1016,-0.12418 -0.299155,-0.12418 -0.327378,0 -0.677333,0.33867 l -0.0056,0.68862 0.03387,1.14017 h -0.575733 l 0.03387,-1.08937 -0.02822,-1.4732 0.547511,-0.0508 -0.0056,0.37818 h 0.03951 q 0.333022,-0.29352 0.694266,-0.40076 0.434622,0 0.654755,0.19756 0.225778,0.19755 0.220134,0.56444 l -0.01693,0.73378 0.02822,1.14017 h -0.581377 z"
           id="path451" />
        <path
           d="m 78.868025,176.16952 q 0.378178,0.079 0.5588,0.29916 0.186266,0.21449 0.186266,0.57009 0,1.03857 -1.552221,1.03857 -0.536222,0 -0.880532,-0.0226 h -0.0056 l 0.03951,-1.08937 -0.03951,-2.53436 1.128888,-0.006 q 0.524933,0 0.8128,0.23142 0.29351,0.22578 0.29351,0.6604 0,0.3048 -0.141111,0.52493 -0.141111,0.21449 -0.400755,0.32738 z m -0.05644,-0.78458 q 0,-0.27093 -0.1524,-0.38946 -0.1524,-0.11854 -0.513644,-0.11854 h -0.383822 l -0.01693,1.11196 0.581377,0.0169 q 0.248355,-0.0621 0.366889,-0.20884 0.118533,-0.1524 0.118533,-0.41205 z m -0.654755,2.24085 q 0.417688,0 0.643466,-0.15805 0.225778,-0.15804 0.225778,-0.46284 0,-0.48542 -0.626533,-0.57009 l -0.6604,0.006 -0.0056,0.47414 0.01693,0.69426 q 0.220133,0.0169 0.4064,0.0169 z"
           id="path453" />
        <path
           d="m 81.475765,175.44703 q 0.06209,0 0.141111,0.0113 v 0.54751 l -0.06209,0.0169 q -0.09031,-0.0282 -0.208844,-0.0282 -0.174978,0 -0.327378,0.12983 -0.1524,0.12982 -0.293511,0.41768 l -0.0056,0.37254 0.03387,1.14017 h -0.575733 l 0.03951,-1.08937 -0.03387,-1.4732 0.547511,-0.0508 -0.0056,0.51929 h 0.03951 q 0.1524,-0.27094 0.338667,-0.38947 0.186266,-0.12418 0.372533,-0.12418 z"
           id="path455" />
        <path
           d="m 83.078784,175.40188 q 0.54751,0 0.841021,0.34431 0.299156,0.33866 0.299156,0.9652 0,0.67169 -0.316089,1.03293 -0.316089,0.36124 -0.897466,0.36124 -0.547511,0 -0.846666,-0.33866 -0.293511,-0.34431 -0.293511,-0.97085 0,-0.67168 0.316089,-1.03293 0.316088,-0.36124 0.897466,-0.36124 z m -0.03387,0.40075 q -0.643466,0 -0.643466,0.86925 0,0.53057 0.158044,0.78457 0.158045,0.254 0.485422,0.254 0.321733,0 0.479778,-0.21449 0.158044,-0.21448 0.158044,-0.65475 0,-0.53058 -0.158044,-0.78458 -0.158045,-0.254 -0.479778,-0.254 z"
           id="path457" />
        <path
           d="m 86.420299,176.3445 q 0.0056,-0.21449 -0.1016,-0.33302 -0.1016,-0.12418 -0.299156,-0.12418 -0.327377,0 -0.677332,0.33867 l -0.0056,0.68862 0.03387,1.14017 H 84.7947 l 0.03387,-1.08937 -0.02822,-1.4732 0.547511,-0.0508 -0.0056,0.37818 h 0.03951 q 0.333022,-0.29351 0.694266,-0.40076 0.434622,0 0.654755,0.19756 0.225778,0.19755 0.220133,0.56444 l -0.01693,0.73378 0.02822,1.14017 h -0.581377 z"
           id="path459" />
        <path
           d="m 88.085408,175.45268 h 1.140177 l 0.248356,-0.006 0.01129,0.34431 -1.377243,1.8796 h 0.925688 l 0.451555,-0.0452 0.03387,0.0452 -0.04516,0.39511 -0.581378,-0.0113 h -1.083732 l -0.3048,0.0113 -0.0056,-0.33866 1.382888,-1.89089 h -0.880532 l -0.434622,0.0452 -0.03387,-0.0452 0.03951,-0.39511 z"
           id="path461" />
        <path
           d="m 91.940561,176.77912 -1.586087,0.006 q 0.0056,0.42897 0.208844,0.65475 0.2032,0.22013 0.575733,0.22013 0.378177,0 0.761999,-0.23142 l 0.05644,0.0339 -0.08467,0.46284 q -0.412044,0.18062 -0.80151,0.18062 -0.581378,0 -0.9144,-0.3556 -0.327377,-0.36124 -0.327377,-0.98213 0,-0.62653 0.327377,-0.99342 0.327378,-0.36689 0.886177,-0.36689 0.474133,0 0.728133,0.25965 0.259644,0.25964 0.259644,0.73377 0,0.12983 -0.02822,0.31045 z m -0.428977,-0.44591 q 0,-0.25964 -0.124178,-0.39511 -0.118533,-0.14111 -0.349955,-0.14111 -0.259644,0 -0.428978,0.16933 -0.169333,0.16369 -0.225777,0.46849 l 1.117599,-0.0226 z"
           id="path463" />
        <path
           d="m 93.933045,175.42446 q 0.491066,0 0.75071,0.32737 0.259645,0.32738 0.259645,0.92005 0,0.68862 -0.333022,1.06115 -0.333022,0.37253 -0.925689,0.37253 -0.287866,0 -0.575733,-0.12982 l -0.361244,0.14676 -0.08467,-0.0565 0.03951,-1.09502 -0.03387,-2.83351 0.575733,-0.0452 -0.02258,1.72155 h 0.03387 q 0.174978,-0.1524 0.327377,-0.23706 0.1524,-0.0903 0.349956,-0.1524 z m -0.225778,2.28599 q 0.327378,0 0.513644,-0.23142 0.186267,-0.23707 0.186267,-0.7112 0,-0.42333 -0.146756,-0.64911 -0.146755,-0.23142 -0.423333,-0.23142 -0.299155,0 -0.620888,0.33867 l -0.01129,0.67733 0.01693,0.65475 q 0.254,0.1524 0.485422,0.1524 z"
           id="path465" />
        <path
           d="m 97.477751,176.77912 -1.586088,0.006 q 0.0056,0.42897 0.208844,0.65475 0.2032,0.22013 0.575733,0.22013 0.378178,0 0.762,-0.23142 l 0.05644,0.0339 -0.08467,0.46284 q -0.412045,0.18062 -0.801511,0.18062 -0.581377,0 -0.914399,-0.3556 -0.327378,-0.36124 -0.327378,-0.98213 0,-0.62653 0.327378,-0.99342 0.327377,-0.36689 0.886177,-0.36689 0.474133,0 0.728133,0.25965 0.259644,0.25964 0.259644,0.73377 0,0.12983 -0.02822,0.31045 z m -0.428978,-0.44591 q 0,-0.25964 -0.124177,-0.39511 -0.118534,-0.14111 -0.349956,-0.14111 -0.259644,0 -0.428977,0.16933 -0.169333,0.16369 -0.225778,0.46849 l 1.117599,-0.0226 z"
           id="path467" />
        <path
           d="m 99.120284,175.40188 q 0.389467,0 0.615244,0.18626 0.225778,0.18627 0.225778,0.51929 0,0.1016 -0.03387,0.67734 -0.03387,0.56444 -0.03387,0.66039 0,0.10725 0.03387,0.1524 0.03951,0.0395 0.129821,0.0395 0.0564,0 0.16933,-0.0226 l 0.0508,0.0395 -0.0564,0.31609 q -0.16369,0.1016 -0.355599,0.12418 -0.174978,-0.0169 -0.282222,-0.12418 -0.107245,-0.11289 -0.129823,-0.29351 h -0.03951 q -0.287866,0.3048 -0.587021,0.42333 -0.389467,-0.006 -0.615244,-0.2032 -0.220134,-0.19756 -0.220134,-0.53622 0,-0.50236 0.547511,-0.62653 l 0.891822,-0.19756 0.0056,-0.3048 q 0,-0.20884 -0.107244,-0.31609 -0.1016,-0.10724 -0.299156,-0.10724 -0.191911,0 -0.383822,0.0903 -0.191911,0.0847 -0.423333,0.27093 l -0.04516,-0.0282 -0.07338,-0.40076 q 0.496711,-0.33866 1.015999,-0.33866 z m -0.423333,1.64253 q -0.1016,0.0226 -0.146755,0.079 -0.04516,0.0508 -0.04516,0.16369 0,0.16933 0.09031,0.26529 0.09596,0.0959 0.254,0.0959 0.265289,0 0.564444,-0.34431 l 0.01693,-0.43462 z"
           id="path469" />
        <path
           d="m 102.0949,175.44703 q 0.0621,0 0.14111,0.0113 v 0.54751 l -0.0621,0.0169 q -0.0903,-0.0282 -0.20885,-0.0282 -0.17498,0 -0.32738,0.12983 -0.1524,0.12982 -0.29351,0.41768 l -0.006,0.37254 0.0339,1.14017 h -0.57574 l 0.0395,-1.08937 -0.0339,-1.4732 0.54751,-0.0508 -0.006,0.51929 h 0.0395 q 0.1524,-0.27094 0.33867,-0.38947 0.18627,-0.12418 0.37253,-0.12418 z"
           id="path471" />
        <path
           d="m 104.72521,176.90894 0.0169,0.54187 q 0.006,0.10724 0.0339,0.14675 0.0282,0.0395 0.11289,0.0395 0.0621,0 0.17498,-0.0226 l 0.0508,0.0395 -0.0565,0.31609 q -0.16369,0.1016 -0.3556,0.12418 -0.17497,-0.0169 -0.28786,-0.11854 -0.10725,-0.10724 -0.13547,-0.27658 h -0.0452 q -0.16368,0.14112 -0.29351,0.23143 -0.12982,0.0847 -0.28786,0.15804 -0.56445,0 -0.86925,-0.34431 -0.29915,-0.34996 -0.29915,-0.98213 0,-0.64911 0.33866,-0.99907 0.33867,-0.3556 0.94263,-0.3556 0.19755,0 0.44026,0.0452 l -0.0113,-1.31516 0.57009,-0.0452 z m -1.016,-1.10631 q -0.32173,0 -0.508,0.22014 -0.18062,0.22013 -0.18062,0.65475 0,0.4572 0.16933,0.69991 0.16934,0.24271 0.47414,0.24271 0.14111,0 0.27093,-0.0677 0.12982,-0.0677 0.27658,-0.23142 l 0.0113,-0.36125 -0.0169,-1.02729 q -0.27093,-0.12982 -0.49671,-0.12982 z"
           id="path473" />
      </g>
      <g
         aria-label="Rexxar"
         id="text1117"
         style="font-weight:500;font-size:5.64444px;line-height:1.25;font-family:'Alegreya Sans';-inkscape-font-specification:'Alegreya Sans Medium';stroke-width:0.264583">
        <path
           d="m 48.174882,177.37764 q 0.383822,0.61525 0.908755,1.31516 l -0.0056,0.0677 q -0.270933,0.0903 -0.5588,0.11853 l -0.06773,-0.0452 q -0.468489,-0.76765 -0.756355,-1.29822 h -0.615244 v 0.1524 l 0.02822,1.14017 h -0.592666 l 0.03951,-1.08937 -0.03951,-2.53436 1.230488,-0.006 q 0.54751,0 0.846666,0.27657 0.299155,0.27094 0.299155,0.77894 0,0.36124 -0.191911,0.65475 -0.186266,0.28787 -0.524933,0.46849 z m -1.083732,-0.31609 0.620888,0.0169 q 0.570089,-0.17498 0.570089,-0.77894 0,-0.31609 -0.174978,-0.47413 -0.169333,-0.15804 -0.519289,-0.16933 l -0.479777,0.0169 z"
           id="path430" />
        <path
           d="m 51.369635,177.55262 -1.586088,0.006 q 0.0056,0.42898 0.208844,0.65476 0.2032,0.22013 0.575733,0.22013 0.378178,0 0.761999,-0.23142 l 0.05644,0.0339 -0.08467,0.46284 q -0.412044,0.18062 -0.80151,0.18062 -0.581378,0 -0.9144,-0.3556 -0.327377,-0.36124 -0.327377,-0.98213 0,-0.62653 0.327377,-0.99342 0.327378,-0.36689 0.886178,-0.36689 0.474133,0 0.728132,0.25964 0.259645,0.25965 0.259645,0.73378 0,0.12982 -0.02822,0.31045 z m -0.428978,-0.44591 q 0,-0.25965 -0.124178,-0.39511 -0.118533,-0.14111 -0.349955,-0.14111 -0.259644,0 -0.428977,0.16933 -0.169334,0.16369 -0.225778,0.46849 l 1.117599,-0.0226 z"
           id="path432" />
        <path
           d="m 52.509812,176.48582 0.462844,0.69991 0.434622,-0.7112 0.135467,-0.24835 h 0.513644 l -0.778933,1.27564 0.829733,1.30386 -0.603955,0.0508 -0.124178,-0.29351 -0.479777,-0.72813 -0.479778,0.75636 -0.118533,0.23706 h -0.513644 l 0.795866,-1.31515 -0.795866,-1.27 0.609599,-0.0339 z"
           id="path434" />
        <path
           d="m 55.027228,176.48582 0.462844,0.69991 0.434622,-0.7112 0.135466,-0.24835 h 0.513644 l -0.778932,1.27564 0.829732,1.30386 -0.603955,0.0508 -0.124177,-0.29351 -0.479778,-0.72813 -0.479777,0.75636 -0.118533,0.23706 h -0.513645 l 0.795867,-1.31515 -0.795867,-1.27 0.6096,-0.0339 z"
           id="path436" />
        <path
           d="m 57.9454,176.17538 q 0.389467,0 0.615244,0.18626 0.225778,0.18627 0.225778,0.51929 0,0.1016 -0.03387,0.67733 -0.03387,0.56445 -0.03387,0.6604 0,0.10725 0.03387,0.1524 0.03951,0.0395 0.129822,0.0395 0.05645,0 0.169334,-0.0226 l 0.0508,0.0395 -0.05644,0.31609 q -0.163689,0.1016 -0.3556,0.12417 -0.174977,-0.0169 -0.282222,-0.12417 -0.107244,-0.11289 -0.129822,-0.29352 h -0.03951 q -0.287866,0.3048 -0.587022,0.42334 -0.389466,-0.006 -0.615244,-0.2032 -0.220133,-0.19756 -0.220133,-0.53622 0,-0.50236 0.547511,-0.62654 l 0.891821,-0.19755 0.0056,-0.3048 q 0,-0.20885 -0.107244,-0.31609 -0.1016,-0.10724 -0.299156,-0.10724 -0.191911,0 -0.383822,0.0903 -0.191911,0.0847 -0.423333,0.27093 l -0.04516,-0.0282 -0.07338,-0.40076 q 0.496711,-0.33866 1.015999,-0.33866 z m -0.423333,1.64253 q -0.1016,0.0226 -0.146755,0.079 -0.04516,0.0508 -0.04516,0.16369 0,0.16933 0.09031,0.26529 0.09596,0.096 0.254,0.096 0.265289,0 0.564444,-0.34431 l 0.01693,-0.43462 z"
           id="path438" />
        <path
           d="m 60.92002,176.22053 q 0.06209,0 0.141111,0.0113 v 0.54751 l -0.06209,0.0169 q -0.09031,-0.0282 -0.208844,-0.0282 -0.174978,0 -0.327378,0.12982 -0.1524,0.12983 -0.293511,0.41769 l -0.0056,0.37254 0.03387,1.14017 h -0.575733 l 0.03951,-1.08937 -0.03387,-1.4732 0.547511,-0.0508 -0.0056,0.51929 h 0.03951 q 0.1524,-0.27094 0.338667,-0.38947 0.186266,-0.12418 0.372533,-0.12418 z"
           id="path440" />
      </g>
      <g
         aria-label="The Titans"
         id="text1121"
         style="font-weight:500;font-size:5.64444px;line-height:1.25;font-family:'Alegreya Sans';-inkscape-font-specification:'Alegreya Sans Medium';stroke-width:0.264583">
        <path
           d="m 119.72063,175.25533 -0.0339,0.44027 -0.65476,-0.0339 h -0.3048 l -0.0282,2.02636 0.0282,1.14017 h -0.58702 l 0.0339,-1.08937 -0.0282,-2.07716 h -0.3048 l -0.66605,0.0339 -0.0395,-0.0508 0.0452,-0.44027 h 2.50613 z"
           id="path411" />
        <path
           d="m 121.8486,177.118 q 0.006,-0.21449 -0.1016,-0.33303 -0.1016,-0.12417 -0.29916,-0.12417 -0.32173,0 -0.67733,0.33866 l -0.0113,0.68298 0.0395,1.14582 H 120.223 l 0.0395,-1.09502 -0.0339,-2.82222 0.57574,-0.0452 -0.0282,1.72719 h 0.0339 q 0.33302,-0.29351 0.69427,-0.40075 0.43462,0 0.65475,0.19755 0.22578,0.19756 0.22014,0.56445 l -0.0113,0.73378 0.0226,1.14017 h -0.57573 z"
           id="path413" />
        <path
           d="m 125.07722,177.55262 -1.58609,0.006 q 0.006,0.42898 0.20884,0.65476 0.2032,0.22013 0.57573,0.22013 0.37818,0 0.762,-0.23142 l 0.0564,0.0339 -0.0847,0.46284 q -0.41204,0.18062 -0.80151,0.18062 -0.58138,0 -0.9144,-0.3556 -0.32738,-0.36124 -0.32738,-0.98213 0,-0.62653 0.32738,-0.99342 0.32738,-0.36689 0.88618,-0.36689 0.47413,0 0.72813,0.25964 0.25965,0.25965 0.25965,0.73378 0,0.12982 -0.0282,0.31045 z m -0.42898,-0.44591 q 0,-0.25965 -0.12418,-0.39511 -0.11853,-0.14111 -0.34996,-0.14111 -0.25964,0 -0.42897,0.16933 -0.16934,0.16369 -0.22578,0.46849 l 1.1176,-0.0226 z"
           id="path415" />
        <path
           d="m 128.97752,175.25533 -0.0339,0.44027 -0.65476,-0.0339 h -0.3048 l -0.0282,2.02636 0.0282,1.14017 h -0.58702 l 0.0339,-1.08937 -0.0282,-2.07716 h -0.30479 l -0.66605,0.0339 -0.0395,-0.0508 0.0452,-0.44027 h 2.50613 z"
           id="path417" />
        <path
           d="m 129.51939,177.73889 -0.0169,-1.4732 0.56445,-0.0508 -0.0226,1.4732 0.0169,1.14017 h -0.56444 z m 0.27094,-2.72627 q 0.14111,0 0.22013,0.0847 0.079,0.079 0.079,0.22577 0,0.1524 -0.0847,0.24272 -0.0847,0.0903 -0.23143,0.0903 -0.14675,0 -0.23142,-0.0847 -0.079,-0.0847 -0.079,-0.23142 0,-0.14676 0.0847,-0.23707 0.0903,-0.0903 0.24271,-0.0903 z"
           id="path419" />
        <path
           d="m 131.81104,178.39364 q 0.18626,0 0.39511,-0.1016 l 0.0564,0.0395 -0.0564,0.36125 q -0.31045,0.14675 -0.57573,0.16933 -0.34996,-0.0565 -0.508,-0.23142 -0.15805,-0.18063 -0.15805,-0.51929 l 0.0226,-0.4064 -0.006,-1.10067 h -0.3556 l -0.0226,-0.0339 0.0282,-0.33303 h 0.34431 v -0.41204 l 0.508,-0.19191 0.0508,0.0452 -0.0113,0.5588 h 0.72249 l 0.0226,0.0395 -0.0282,0.32737 h -0.72813 l -0.0282,1.41676 q -0.006,0.20884 0.0677,0.29351 0.079,0.079 0.25965,0.079 z"
           id="path421" />
        <path
           d="m 133.6737,176.17538 q 0.38947,0 0.61524,0.18626 0.22578,0.18627 0.22578,0.51929 0,0.1016 -0.0339,0.67733 -0.0339,0.56445 -0.0339,0.6604 0,0.10725 0.0339,0.1524 0.0395,0.0395 0.12982,0.0395 0.0564,0 0.16933,-0.0226 l 0.0508,0.0395 -0.0564,0.31609 q -0.16369,0.1016 -0.3556,0.12417 -0.17498,-0.0169 -0.28223,-0.12417 -0.10724,-0.11289 -0.12982,-0.29352 h -0.0395 q -0.28787,0.3048 -0.58702,0.42334 -0.38947,-0.006 -0.61524,-0.2032 -0.22014,-0.19756 -0.22014,-0.53622 0,-0.50236 0.54751,-0.62654 l 0.89182,-0.19755 0.006,-0.3048 q 0,-0.20885 -0.10725,-0.31609 -0.1016,-0.10724 -0.29915,-0.10724 -0.19191,0 -0.38382,0.0903 -0.19191,0.0847 -0.42334,0.27093 l -0.0452,-0.0282 -0.0734,-0.40076 q 0.49671,-0.33866 1.016,-0.33866 z m -0.42333,1.64253 q -0.1016,0.0226 -0.14676,0.079 -0.0452,0.0508 -0.0452,0.16369 0,0.16933 0.0903,0.26529 0.0959,0.096 0.254,0.096 0.26529,0 0.56444,-0.34431 l 0.0169,-0.43462 z"
           id="path423" />
        <path
           d="m 136.9757,177.118 q 0.006,-0.21449 -0.1016,-0.33303 -0.1016,-0.12417 -0.29916,-0.12417 -0.32738,0 -0.67733,0.33866 l -0.006,0.68863 0.0339,1.14017 h -0.57573 l 0.0339,-1.08937 -0.0282,-1.4732 0.54751,-0.0508 -0.006,0.37817 h 0.0395 q 0.33302,-0.29351 0.69427,-0.40075 0.43462,0 0.65475,0.19755 0.22578,0.19756 0.22013,0.56445 l -0.0169,0.73378 0.0282,1.14017 h -0.58137 z"
           id="path425" />
        <path
           d="m 139.06978,176.18102 q 0.33867,0 0.6604,0.12982 l -0.079,0.45156 -0.0734,0.0169 q -0.29351,-0.19755 -0.57573,-0.19755 -0.16933,0 -0.27093,0.0903 -0.096,0.0903 -0.096,0.22013 0,0.14111 0.11289,0.22578 0.11853,0.0847 0.36124,0.18626 0.22014,0.096 0.3556,0.18063 0.14112,0.0847 0.23707,0.22577 0.1016,0.14111 0.1016,0.34996 0,0.21449 -0.11289,0.4064 -0.11289,0.18626 -0.33302,0.29915 -0.22013,0.11289 -0.53058,0.11289 -0.38946,0 -0.79022,-0.17498 l 0.0677,-0.47977 0.0621,-0.0395 q 0.16369,0.14111 0.36125,0.22577 0.19755,0.079 0.36124,0.079 0.18062,0 0.28787,-0.096 0.11289,-0.1016 0.11289,-0.23707 0,-0.14111 -0.11289,-0.22013 -0.11289,-0.0847 -0.3556,-0.19755 -0.22014,-0.096 -0.36125,-0.18063 -0.14111,-0.0847 -0.24271,-0.23142 -0.0959,-0.14675 -0.0959,-0.36124 0,-0.34431 0.254,-0.56445 0.254,-0.22013 0.69426,-0.22013 z"
           id="path427" />
      </g>
    </g>
  </g>
</svg>
