<?xml version="1.0" encoding="UTF-8" standalone="no"?>
<svg
   version="1.0"
   width="822.30835"
   height="822.30835"
   viewBox="0 0 822.30836 822.30841"
   preserveAspectRatio="xMidYMid"
   id="svg3438"
   sodipodi:docname="heraldry.svg"
   inkscape:version="1.2.2 (b0a8486541, 2022-12-01)"
   inkscape:export-filename="../../../../tmp/heraldry.png"
   inkscape:export-xdpi="250.041"
   inkscape:export-ydpi="250.041"
   xmlns:inkscape="http://www.inkscape.org/namespaces/inkscape"
   xmlns:sodipodi="http://sodipodi.sourceforge.net/DTD/sodipodi-0.dtd"
   xmlns:xlink="http://www.w3.org/1999/xlink"
   xmlns="http://www.w3.org/2000/svg"
   xmlns:svg="http://www.w3.org/2000/svg">
  <defs
     id="defs3442">
    <inkscape:path-effect
       effect="copy_rotate"
       starting_point="612,512"
       origin="512,512"
       id="path-effect9721"
       is_visible="true"
       lpeversion="1.2"
       lpesatellites=""
       method="normal"
       num_copies="6"
       starting_angle="0"
       rotation_angle="60"
       gap="-0.01"
       copies_to_360="true"
       mirror_copies="false"
       split_items="false"
       link_styles="false" />
    <inkscape:path-effect
       effect="mirror_symmetry"
       start_point="-0.39990212,512.00001"
       end_point="1024.4,512.00001"
       center_point="512.00003,512.00001"
       id="path-effect9672"
       is_visible="true"
       lpeversion="1.2"
       lpesatellites=""
       mode="horizontal"
       discard_orig_path="false"
       fuse_paths="false"
       oposite_fuse="false"
       split_items="false"
       split_open="false"
       link_styles="false" />
    <linearGradient
       inkscape:collect="always"
       id="linearGradient1345">
      <stop
         style="stop-color:#15206f;stop-opacity:1;"
         offset="0.73732269"
         id="stop1341" />
      <stop
         style="stop-color:#111755;stop-opacity:1;"
         offset="1"
         id="stop1349" />
    </linearGradient>
    <inkscape:path-effect
       effect="copy_rotate"
       starting_point="612,512"
       origin="512,512"
       id="path-effect2534"
       is_visible="true"
       lpeversion="1.2"
       lpesatellites=""
       method="normal"
       num_copies="6"
       starting_angle="0"
       rotation_angle="60"
       gap="-0.01"
       copies_to_360="true"
       mirror_copies="false"
       split_items="false"
       link_styles="false" />
    <inkscape:path-effect
       center_point="512.00003,512.00001"
       end_point="1024.4,512.00001"
       start_point="-0.39990212,512.00001"
       effect="mirror_symmetry"
       id="path-effect2228"
       is_visible="true"
       lpeversion="1.2"
       lpesatellites=""
       mode="horizontal"
       discard_orig_path="false"
       fuse_paths="false"
       oposite_fuse="false"
       split_items="false"
       split_open="false"
       link_styles="false" />
    <inkscape:path-effect
       effect="copy_rotate"
       starting_point="148,-1"
       origin="48,-1"
       id="path-effect1944"
       is_visible="true"
       lpeversion="1.2"
       lpesatellites=""
       method="normal"
       num_copies="6"
       starting_angle="0"
       rotation_angle="60"
       gap="-0.01"
       copies_to_360="true"
       mirror_copies="false"
       split_items="false"
       link_styles="false" />
    <linearGradient
       inkscape:collect="always"
       id="linearGradient59970">
      <stop
         style="stop-color:#ff8d2a;stop-opacity:1;"
         offset="0"
         id="stop59966" />
      <stop
         style="stop-color:#ff7f2a;stop-opacity:1;"
         offset="1"
         id="stop59968" />
    </linearGradient>
    <inkscape:path-effect
       effect="copy_rotate"
       starting_point="178,-78"
       origin="78,-78"
       id="path-effect59858"
       is_visible="true"
       lpeversion="1.2"
       lpesatellites=""
       method="normal"
       num_copies="6"
       starting_angle="0"
       rotation_angle="60"
       gap="-0.01"
       copies_to_360="true"
       mirror_copies="false"
       split_items="false"
       link_styles="false" />
    <inkscape:path-effect
       effect="copy_rotate"
       starting_point="613.5,512"
       origin="513.5,512"
       id="path-effect38894"
       is_visible="true"
       lpeversion="1.2"
       lpesatellites=""
       method="normal"
       num_copies="6"
       starting_angle="0"
       rotation_angle="60"
       gap="-0.01"
       copies_to_360="true"
       mirror_copies="false"
       split_items="false"
       link_styles="false" />
    <inkscape:path-effect
       effect="mirror_symmetry"
       start_point="512.00018,84.953683"
       end_point="512.00018,939.05163"
       center_point="512.00018,512.00266"
       id="path-effect38861"
       is_visible="true"
       lpeversion="1.2"
       lpesatellites=""
       mode="vertical"
       discard_orig_path="false"
       fuse_paths="false"
       oposite_fuse="false"
       split_items="false"
       split_open="false"
       link_styles="false" />
    <inkscape:path-effect
       effect="copy_rotate"
       starting_point="36,326.64"
       origin="-64,326.64"
       id="path-effect38784"
       is_visible="true"
       lpeversion="1.2"
       lpesatellites=""
       method="fuse_paths"
       num_copies="6"
       starting_angle="0"
       rotation_angle="60"
       gap="-0.01"
       copies_to_360="true"
       mirror_copies="false"
       split_items="false"
       link_styles="false" />
    <inkscape:path-effect
       effect="mirror_symmetry"
       start_point="-62.252609,128.08326"
       end_point="-62.252609,325.38867"
       center_point="-62.252609,226.73596"
       id="path-effect38780"
       is_visible="true"
       lpeversion="1.2"
       lpesatellites=""
       mode="free"
       discard_orig_path="false"
       fuse_paths="false"
       oposite_fuse="false"
       split_items="false"
       split_open="false"
       link_styles="false" />
    <inkscape:path-effect
       effect="copy_rotate"
       starting_point="300,390"
       origin="200,390"
       id="path-effect27665"
       is_visible="true"
       lpeversion="1.2"
       lpesatellites=""
       method="fuse_paths"
       num_copies="6"
       starting_angle="0"
       rotation_angle="60"
       gap="-0.01"
       copies_to_360="true"
       mirror_copies="false"
       split_items="false"
       link_styles="false" />
    <inkscape:path-effect
       effect="mirror_symmetry"
       start_point="201.29131,-119.65358"
       end_point="201.29131,899.65326"
       center_point="201.29131,389.99984"
       id="path-effect24579"
       is_visible="true"
       lpeversion="1.2"
       lpesatellites=""
       mode="vertical"
       discard_orig_path="false"
       fuse_paths="true"
       oposite_fuse="false"
       split_items="false"
       split_open="false"
       link_styles="false" />
    <inkscape:path-effect
       effect="mirror_symmetry"
       start_point="78.000001,95.374258"
       end_point="78.000001,-251.37448"
       center_point="78.000001,-78.000114"
       id="path-effect24707-5"
       is_visible="true"
       lpeversion="1.2"
       lpesatellites=""
       mode="vertical"
       discard_orig_path="false"
       fuse_paths="false"
       oposite_fuse="false"
       split_items="false"
       split_open="false"
       link_styles="false" />
    <radialGradient
       inkscape:collect="always"
       xlink:href="#linearGradient59970"
       id="radialGradient59972"
       cx="512"
       cy="512"
       fx="512"
       fy="512"
       r="79.140488"
       gradientUnits="userSpaceOnUse"
       gradientTransform="matrix(0.7773971,0,0,0.7773971,113.97269,113.97269)" />
    <radialGradient
       inkscape:collect="always"
       xlink:href="#linearGradient1345"
       id="radialGradient9874"
       cx="512"
       cy="512"
       fx="512"
       fy="512"
       r="411.15417"
       gradientUnits="userSpaceOnUse" />
  </defs>
  <sodipodi:namedview
     id="namedview3440"
     pagecolor="#afafaf"
     bordercolor="#666666"
     borderopacity="1.0"
     inkscape:showpageshadow="2"
     inkscape:pageopacity="0"
     inkscape:pagecheckerboard="true"
     inkscape:deskcolor="#d1d1d1"
     showgrid="false"
     inkscape:zoom="1.4142136"
     inkscape:cx="379.71633"
     inkscape:cy="445.12371"
     inkscape:window-width="1920"
     inkscape:window-height="1006"
     inkscape:window-x="0"
     inkscape:window-y="0"
     inkscape:window-maximized="1"
     inkscape:current-layer="g3732" />
  <g
     inkscape:groupmode="layer"
     id="layer7"
     inkscape:label="framing"
     transform="translate(-100.84583,-100.84582)">
    <g
       id="g1126"
       transform="matrix(0.97035745,0,0,0.97153489,15.176814,14.57396)">
      <g
         id="g3732">
        <circle
           style="fill:url(#radialGradient9874);fill-opacity:1;stroke:#d9dae7;stroke-width:50;stroke-dasharray:none;stroke-opacity:1;paint-order:stroke markers fill"
           id="circle7274"
           cx="512"
           cy="512"
           transform="matrix(1.0305481,0,0,1.0292991,-15.640436,-15.000964)"
           r="386.15417" />
        <path
           sodipodi:type="star"
           style="fill:#f2f2f2;fill-opacity:1;stroke:none;stroke-width:0.265;stroke-dasharray:none;stroke-opacity:1;paint-order:stroke markers fill"
           id="path19049"
           inkscape:flatsided="false"
           sodipodi:sides="4"
           sodipodi:cx="15.247727"
           sodipodi:cy="26.753679"
           sodipodi:r1="5.0149598"
           sodipodi:r2="1.3026859"
           sodipodi:arg1="0.89320594"
           sodipodi:arg2="1.6786041"
           inkscape:rounded="0"
           inkscape:randomized="0"
           inkscape:transform-center-x="-0.067582528"
           inkscape:transform-center-y="0.35477955"
           transform="matrix(4.3804463,3.6719799,-3.68548,4.3644005,298.05178,340.10085)"
           d="m 18.391694,30.660762 -3.284134,-2.61196 -3.766916,1.848844 2.61196,-3.284135 -1.848843,-3.766915 3.284134,2.61196 3.766915,-1.848843 -2.61196,3.284134 z m 42.223177,9.811165 -3.904091,1.538163 -0.282312,4.186666 -1.538163,-3.904091 -4.186666,-0.282312 3.904091,-1.538164 0.282312,-4.186666 1.538163,3.904091 z M 90.223178,8.8111643 89.603221,12.961288 93.087824,15.29911 88.9377,14.679154 l -2.337822,3.484603 0.619956,-4.150124 -3.484603,-2.337823 4.150124,0.619957 z m -12.614872,-41.4719263 3.284134,2.61196 3.766916,-1.848844 -2.61196,3.284135 1.848843,3.766915 -3.284134,-2.61196 -3.766915,1.848843 2.61196,-3.284134 z m -42.223177,-9.811165 3.904091,-1.538163 0.282312,-4.186666 1.538163,3.904091 4.186666,0.282312 -3.904091,1.538164 -0.282312,4.186666 -1.538163,-3.904091 z m -29.6083066,31.660763 0.6199567,-4.150124 -3.4846029,-2.337822 4.1501236,0.619956 2.3378226,-3.484603 -0.6199567,4.150124 3.4846033,2.337823 -4.150124,-0.619957 z"
           inkscape:path-effect="#path-effect1944"
           class="UnoptimicedTransforms" />
        <circle
           style="opacity:0.958124;fill:#32b6ea;fill-opacity:1;stroke:none;stroke-width:3.77953;stroke-dasharray:none;stroke-opacity:1;paint-order:stroke fill markers"
           id="path38964"
           cx="411.15417"
           cy="411.15417"
           r="26.704102"
           transform="matrix(1.0305481,0,0,1.0292991,88.286039,88.799559)" />
        <g
           fill="#bc0029"
           id="g2368"
           transform="matrix(1.0305481,0,0,1.0292991,339.20113,92.575039)"
           style="display:inline;fill:#db1b3a;fill-opacity:1;stroke:#ff5918;stroke-width:8;stroke-dasharray:none;stroke-opacity:1;paint-order:normal">
          <path
             d="m 201.28125,84.935547 c -5.60305,5.328348 -12.02398,12.786808 -16.5332,17.894533 -4.26086,4.8264 -9.01767,9.83074 -13.16016,14.16797 -10.34865,10.83515 -18.92449,22.58492 -26.87891,36.09961 -2.65147,4.50488 -5.23456,9.20533 -7.79101,14.13476 -7.63707,15.49777 -9.88482,32.98793 -8.77149,50.0918 0.18878,13.58596 5.50686,42.21571 11.70899,54.04687 3.8609,6.85647 8.1516,15.46987 12.56641,22.1543 3.08822,4.67586 13.65166,20.50034 19.67382,26.10156 5.22941,4.86387 20.18035,25.367 29.18555,26.75196 9.0052,-1.38496 23.96004,-21.88809 29.18945,-26.75196 6.02217,-5.60122 16.58756,-21.4257 19.67578,-26.10156 4.41481,-6.68443 8.7016,-15.29784 12.5625,-22.1543 6.20213,-11.83116 11.52409,-40.46091 11.7129,-54.04687 1.11333,-17.10387 -1.14029,-34.59402 -8.77735,-50.0918 -10.22577,-19.71767 -20.86782,-35.78751 -34.66601,-50.23437 -4.1425,-4.33723 -8.90321,-9.34158 -13.16407,-14.16797 -4.50921,-5.107729 -10.93017,-12.566194 -16.5332,-17.894533 z M 23.761719,221.44531 c -15.6812409,0.13093 -30.1413835,1.68195 -44.699219,5.22657 -5.827396,1.41889 -12.541353,3.03763 -18.851562,4.31445 -6.67802,1.35123 -16.347678,3.18289 -23.763672,5.37109 1.812959,7.51656 5.061667,16.80667 7.230468,23.26563 2.04936,6.10321 4.004553,12.72631 5.689454,18.48242 4.209189,14.37977 10.097362,27.6801 17.824218,41.32617 2.575608,4.54868 5.35491,9.13579 8.345703,13.81445 9.602931,14.36279 23.62508799,25.05678 38.994141,32.64453 11.86018,6.62951 39.313008,16.33649 52.660156,16.88086 7.868322,0.0846 17.472462,0.67644 25.46875,0.19532 5.593525,-0.33655 24.581474,-1.57355 32.443364,-3.98828 6.82693,-2.09687 32.05971,-4.79219 37.76171,-11.89844 3.30319,-8.49121 -6.97669,-31.69551 -8.57421,-38.65625 -1.83972,-8.01597 -10.26228,-25.07549 -12.76758,-30.08789 -3.58149,-7.16555 -8.89688,-15.18712 -12.9043,-21.95899 -7.14502,-11.28678 -29.279774,-30.20954 -40.951171,-37.16601 -14.255718,-9.51611 -30.527576,-16.31032 -47.767578,-17.44532 -5.547222,-0.25076 -10.911592,-0.36395 -16.138672,-0.32031 z m 353.757811,2.22071 c -5.22708,-0.0438 -10.58948,0.0695 -16.13672,0.32031 -17.24,1.13499 -33.51186,7.93311 -47.76758,17.44922 -11.6714,6.95647 -33.80615,25.87728 -40.95117,37.16406 -4.00742,6.77187 -9.32086,14.79343 -12.90234,21.95898 -2.5053,5.01241 -10.92786,22.07389 -12.76758,30.08985 -1.59753,6.96073 -11.87936,30.16113 -8.57617,38.65234 5.70201,7.10625 30.93673,9.80548 37.76367,11.90234 7.86189,2.41474 26.84789,3.65174 32.44141,3.98829 7.99629,0.48112 17.60043,-0.11268 25.46875,-0.19727 13.34715,-0.54438 40.80193,-10.25137 52.66211,-16.88086 15.36905,-7.58776 29.38924,-18.2837 38.99218,-32.64648 11.96312,-18.71461 20.55768,-35.96561 26.16993,-55.13868 1.6849,-5.75612 3.6401,-12.38116 5.68945,-18.48437 2.16881,-6.45895 5.41751,-15.74908 7.23047,-23.26563 -7.41601,-2.1882 -17.08565,-4.01985 -23.76367,-5.37109 -6.31022,-1.27681 -13.02418,-2.89361 -18.85157,-4.3125 -14.55784,-3.54462 -29.0199,-5.09713 -44.70117,-5.22851 z M 78.595703,394.69531 c -4.384111,0.0989 -8.75334,0.26825 -12.6875,0.31055 -13.34715,0.54438 -40.801929,10.25137 -52.662109,16.88086 -15.3690506,7.58776 -29.389248,18.2837 -38.992188,32.64648 -11.96312,18.71461 -20.557672,35.96563 -26.169922,55.13868 -1.6849,5.75612 -3.640103,12.38116 -5.689453,18.48437 -2.16881,6.45895 -5.417508,15.74908 -7.230469,23.26563 7.416011,2.18821 17.085652,4.01985 23.763672,5.37109 6.31022,1.27681 13.024173,2.89361 18.851563,4.3125 14.5578397,3.54462 29.0199012,5.09713 44.701172,5.22851 5.22708,0.0438 10.589478,-0.0695 16.136719,-0.32031 17.24,-1.13499 33.511858,-7.93311 47.767578,-17.44922 11.6714,-6.95647 33.806154,-25.87728 40.951174,-37.16406 4.00742,-6.77187 9.32086,-14.79343 12.90234,-21.95898 2.5053,-5.01241 10.92786,-22.07389 12.76758,-30.08985 1.59753,-6.96073 11.87936,-30.16113 8.57617,-38.65234 -5.70201,-7.10625 -30.93673,-9.80548 -37.76367,-11.90234 -7.86189,-2.41474 -26.847887,-3.65174 -32.441407,-3.98829 -3.998145,-0.24056 -8.397139,-0.21216 -12.78125,-0.11328 z m 120.123047,38.92578 c -9.0052,1.38496 -23.96004,21.88809 -29.18945,26.75196 -6.02217,5.60122 -16.58756,21.4257 -19.67578,26.10156 -4.41481,6.68443 -8.7016,15.29784 -12.5625,22.1543 -6.20213,11.83116 -11.52411,40.46091 -11.7129,54.04687 -1.11333,17.10387 1.14029,34.59402 8.77735,50.0918 10.22577,19.71767 20.86782,35.78751 34.66601,50.23437 4.1425,4.33723 8.90321,9.34158 13.16407,14.16797 4.50921,5.10772 10.93017,12.56619 16.5332,17.89453 5.60305,-5.32834 12.02398,-12.78681 16.5332,-17.89453 4.26086,-4.8264 9.01767,-9.83074 13.16016,-14.16797 10.34865,-10.83515 18.92449,-22.58492 26.87891,-36.09961 2.65147,-4.50488 5.23456,-9.20533 7.79101,-14.13476 7.63707,-15.49777 9.88482,-32.98793 8.77149,-50.0918 -0.18878,-13.58596 -5.50686,-42.21571 -11.70899,-54.04687 -3.8609,-6.85647 -8.1516,-15.46987 -12.56641,-22.1543 -3.08822,-4.67586 -13.65166,-20.50034 -19.67382,-26.10156 -5.22941,-4.86387 -20.18035,-25.367 -29.18555,-26.75196 z m 121.40234,-36.70312 c -4.38397,-0.0981 -8.7831,-0.12533 -12.78125,0.11523 -5.59352,0.33655 -24.58147,1.57355 -32.44336,3.98828 -6.82693,2.09687 -32.05971,4.79219 -37.76171,11.89844 -3.30319,8.49121 6.97669,31.69551 8.57421,38.65625 1.83972,8.01597 10.26228,25.07549 12.76758,30.08789 3.58149,7.16555 8.89688,15.18712 12.9043,21.95899 7.14502,11.28678 29.27977,30.20954 40.95117,37.16601 14.25572,9.51611 30.52758,16.31032 47.76758,17.44532 22.18889,1.00306 41.42744,-0.1801 60.83789,-4.90626 5.8274,-1.41889 12.54135,-3.03763 18.85156,-4.31445 6.67802,-1.35123 16.34768,-3.18289 23.76367,-5.37109 -1.81296,-7.51656 -5.06166,-16.80667 -7.23046,-23.26563 -2.04936,-6.10321 -4.00456,-12.72631 -5.68946,-18.48242 -4.20919,-14.37977 -10.09736,-27.6801 -17.82422,-41.32617 -2.5756,-4.54868 -5.35491,-9.13579 -8.3457,-13.81445 -9.60293,-14.36279 -23.62509,-25.05677 -38.99414,-32.64453 -11.86018,-6.6295 -39.31301,-16.33649 -52.66016,-16.88086 -3.93416,-0.0423 -8.30352,-0.21242 -12.6875,-0.31055 z"
             id="path2362"
             sodipodi:nodetypes="scccsscsccss"
             transform="translate(-33.614618,17.486157)"
             style="fill:#db1b3a;fill-opacity:1;stroke:#ff5918;stroke-width:8;stroke-dasharray:none;stroke-opacity:1;paint-order:normal"
             inkscape:original-d="m 152.42921,293.51014 c -4.41481,-6.68443 -8.70488,-15.29832 -12.56578,-22.15478 -6.20213,-11.83116 -11.52112,-40.46071 -11.7099,-54.04667 -1.11333,-17.10387 1.13776,-34.59356 8.77483,-50.09134 10.22576,-19.71767 20.86917,-35.7856 34.66737,-50.23246 4.14249,-4.33722 8.90219,-9.3443 13.16305,-14.1707 4.55639,-5.161155 11.06419,-12.72162 16.70827,-18.0602 1.4e-4,19.17313 0.75022,38.11461 0.75026,57.53617 7e-5,36.1999 2e-5,72.3306 -5e-5,106.52541 -8e-5,42.72849 -2.1e-4,79.88758 -2.1e-4,97.62252 -8.86901,0 -24.70141,-21.7916 -30.11437,-26.8262 -6.02217,-5.60122 -16.58525,-21.42589 -19.67347,-26.10175 z"
             inkscape:path-effect="#path-effect24579;#path-effect27665"
             class="UnoptimicedTransforms" />
        </g>
        <path
           d="m -62.261719,95.742188 -40.912111,85.119142 33.296877,96.08789 7.617187,31.11133 7.613282,-31.10938 33.296875,-96.08984 z m -200.832031,113.943362 53.25977,77.99023 99.86328,19.20703 30.749997,8.96094 -23.134767,-22.14844 -66.56836,-76.88086 z m 399.92773,3.01172 -94.171871,7.1289 -66.566406,76.88086 -23.134765,22.15039 30.748046,-8.96094 99.865235,-19.20898 z m -217.794918,121.72656 -30.748042,8.96094 -99.86524,19.20898 -53.25976,77.99023 94.17187,-7.1289 66.56641,-76.88086 z m 15.220704,10.79492 -7.613282,31.10937 -33.296874,96.0918 40.912109,85.11914 40.912109,-85.12109 -33.296875,-96.08789 z m 16.960937,-7.7832 23.134766,22.14843 66.568359,76.88086 94.169922,7.13086 -53.259766,-77.99218 -99.863281,-19.20704 z"
           id="path3424"
           style="fill:#f4f6ff;fill-opacity:1;stroke:#32b6ea;stroke-width:7.44732;stroke-linecap:butt;stroke-dasharray:none;stroke-opacity:1;paint-order:stroke fill markers"
           sodipodi:nodetypes="cccccc"
           inkscape:path-effect="#path-effect38780;#path-effect38784"
           inkscape:original-d="m -62.252612,95.727716 v 103.040124 109.2783 l -7.61439,-31.11006 -33.297068,-96.08965 z"
           class="UnoptimicedTransforms"
           inkscape:transform-center-x="116.27867"
           inkscape:transform-center-y="-79.26392"
           transform="matrix(1.1347022,0,0,1.133327,582.35172,141.69665)" />
        <path
           d="m 511.96238,329.47582 21.68203,50.17346 -21.65224,65.31167 0.008,49.76917 z m 0.0754,0 -21.68203,50.17346 21.65224,65.31167 -0.008,49.76917 z m -157.37712,92.59371 54.29251,6.30954 45.73544,51.40722 43.10537,24.87766 z m 0.0377,-0.0652 32.61047,43.86392 67.38768,13.90444 43.09737,24.89151 z m 1.49994,182.58943 32.61048,-43.86392 67.38768,-13.90444 43.09737,-24.89152 z m -0.0377,-0.0652 54.29251,-6.30954 45.73544,-51.40723 43.10537,-24.87766 z m 158.87706,89.99572 -21.68203,-50.17346 21.65224,-65.31167 -0.008,-49.76917 z m -0.0753,0 21.68203,-50.17346 -21.65224,-65.31167 0.008,-49.76917 z m 157.37712,-92.59371 -54.29251,-6.30954 -45.73544,-51.40722 -43.10537,-24.87766 z m -0.0377,0.0652 -32.61047,-43.86392 -67.38768,-13.90444 -43.09737,-24.89151 z m -1.49994,-182.58943 -32.61048,43.86392 -67.38768,13.90444 -43.09737,24.89152 z m 0.0377,0.0652 -54.29251,6.30954 -45.73544,51.40723 -43.10537,24.87766 z"
           id="path3144"
           sodipodi:nodetypes="ccccc"
           style="fill:#32b6ea"
           class="UnoptimicedTransforms"
           transform="matrix(-1.2298878,0,0,1.2283973,1141.7028,-116.94267)"
           inkscape:path-effect="#path-effect38861;#path-effect38894"
           inkscape:original-d="m 511.96238,329.47582 21.68203,50.17346 -21.65224,65.31167 0.008,49.76917 z" />
        <circle
           style="opacity:0.958124;fill:url(#radialGradient59972);fill-opacity:1;stroke:none;stroke-width:8.7077;stroke-dasharray:none;stroke-opacity:1;paint-order:stroke fill markers"
           id="path38964-7"
           cx="512"
           cy="512"
           r="61.523586"
           transform="matrix(1.0305481,0,0,1.0292991,-15.640436,-15.000964)" />
        <g
           id="g24403"
           transform="matrix(3.0257402,0,0,-3.0257402,275.99229,275.99193)"
           style="display:inline;fill:#5dc6ee;fill-opacity:1;stroke:#795548;stroke-opacity:1"
           inkscape:path-effect="#path-effect24707-5;#path-effect59858"
           class="UnoptimicedTransforms">
          <path
             style="fill:#5dc6ee;fill-opacity:1;stroke:#795548;stroke-width:0.264583px;stroke-linecap:butt;stroke-linejoin:miter;stroke-opacity:1"
             d="m 78.00005,42.794938 c -0.184521,0.0055 -1.582418,0.04648 -2.841605,-0.04524 C 73.594264,42.635806 71.993651,42.511219 69.444079,42.29606 67.460964,42.128705 65.265634,41.794948 63.141131,41.466968 55.977985,40.361123 58.08451,40.562483 55.864924,40.240746 52.665638,39.776998 50.154843,39.020708 49.460663,38.854736 47.486395,38.382708 45.487176,37.833815 44.10328,37.263893 43.759937,37.122496 43.680629,37.099164 43.196655,36.921457 42.712681,36.74375 42.861313,36.76814 42.73145,36.734712 c -2.467798,-0.635235 -4.640546,-1.645717 -6.471596,-2.751006 -3.306985,-1.996218 -5.499401,-4.301682 -6.30244,-5.264294 -0.397535,-0.47653 -0.962875,-0.985022 -1.742839,-1.969372 -0.779964,-0.984351 -1.661721,-2.705382 -2.176166,-4.497133 -0.682878,-2.378382 -0.423585,-5.886166 0.548892,-8.143701 1.852083,-4.2994782 7.892506,-7.9735091 13.827803,-6.8404192 5.609133,1.070823 7.216975,4.1127092 7.805208,7.0114592 0.211249,1.041014 0.405586,4.052206 -1.71578,6.368684 -2.121366,2.316478 -5.174047,2.031837 -5.174047,2.031837 0,0 -5.318781,0.204112 -5.710955,-4.067969 -0.406752,-4.430875 4.464844,-5.258594 4.464844,-5.258594 l -0.06213,0.004 c 0,0 -2.859632,2.641821 -1.867444,4.824634 0.992187,2.182812 4.135845,2.013736 5.330413,1.190625 0.964789,-0.664783 2.232909,-2.031147 1.910205,-4.034896 -0.334245,-2.075405 -1.143853,-2.976563 -2.731353,-3.836458 -1.5875,-0.859896 -4.564063,-2.0505212 -8.863542,-0.198438 -4.299479,1.852083 -5.031038,6.842315 -4.299479,9.988021 0.546776,2.351138 4.924064,9.770952 13.729644,12.113106 0.340397,0.09054 0.896967,0.344015 1.5925,0.637847 1.355791,0.572761 3.2396,1.058952 5.079549,1.51058 1.075409,0.263966 7.236387,1.72311 12.986991,2.490152 2.105933,0.280899 4.285906,0.704488 6.271169,0.829747 4.698506,0.296449 8.451443,0.184046 8.839585,0.181067 m -4.29e-4,3.740747 c 0.184521,0.0055 1.582418,0.04648 2.841605,-0.04524 1.564181,-0.113892 3.164794,-0.238479 5.714366,-0.453638 1.983115,-0.167355 4.178445,-0.501112 6.302948,-0.829092 7.163148,-1.105845 5.056621,-0.904485 7.276208,-1.226222 3.19929,-0.463748 5.71008,-1.220038 6.40426,-1.38601 1.97427,-0.472028 3.97349,-1.020921 5.35738,-1.590843 0.34335,-0.141397 0.42265,-0.164729 0.90663,-0.342436 0.48397,-0.177707 0.33534,-0.153317 0.4652,-0.186745 2.4678,-0.635235 4.64055,-1.645717 6.4716,-2.751006 3.30698,-1.996218 5.4994,-4.301682 6.30244,-5.264294 0.39753,-0.47653 0.96287,-0.985022 1.74284,-1.969372 0.77996,-0.984351 1.66172,-2.705382 2.17616,-4.497133 0.68288,-2.378382 0.42359,-5.886166 -0.54889,-8.143701 -1.85208,-4.2994782 -7.8925,-7.9735091 -13.8278,-6.8404192 -5.60913,1.070823 -7.21698,4.1127092 -7.80521,7.0114592 -0.21125,1.041014 -0.40558,4.052206 1.71578,6.368684 2.12137,2.316478 5.17405,2.031837 5.17405,2.031837 0,0 5.31878,0.204112 5.71095,-4.067969 0.40676,-4.430875 -4.46484,-5.258594 -4.46484,-5.258594 l 0.0621,0.004 c 0,0 2.85963,2.641821 1.86744,4.824634 -0.99218,2.182812 -4.13584,2.013736 -5.33041,1.190625 -0.96479,-0.664783 -2.23291,-2.031147 -1.9102,-4.034896 0.33424,-2.075405 1.14385,-2.976563 2.73135,-3.836458 1.5875,-0.859896 4.56406,-2.0505212 8.86354,-0.198438 4.29948,1.852083 5.03104,6.842315 4.29948,9.988021 -0.54678,2.351138 -4.92406,9.770952 -13.72964,12.113106 -0.3404,0.09054 -0.89697,0.344015 -1.5925,0.637847 -1.3558,0.572761 -3.2396,1.058952 -5.07955,1.51058 -1.07541,0.263966 -7.236391,1.72311 -12.986995,2.490152 -2.105933,0.280899 -4.285906,0.704488 -6.271169,0.829747 -4.698506,0.296449 -8.451443,0.184046 -8.839585,0.181067 M 182.61151,-17.602574 c -0.0875,0.16255 -0.75096,1.393654 -1.45998,2.438282 -0.88073,1.297674 -1.78893,2.621552 -3.25005,4.721967 -1.13649,1.6337504 -2.52319,3.3680835 -3.86949,5.043967 -4.53926,5.65054393 -3.31161,3.9269198 -4.70004,5.68826913 -2.00126,2.53878897 -3.91162,4.33505617 -4.40245,4.85324767 -1.39592,1.4737523 -2.87089,2.9306802 -4.0564,3.8442083 -0.29413,0.2266453 -0.35399,0.283662 -0.74987,0.6139423 -0.39589,0.3302803 -0.30045,0.2137562 -0.39433,0.3095069 -1.78403,1.8195587 -3.74551,3.1959717 -5.61824,4.2290637 -3.38227,1.865824 -6.47507,2.61178 -7.71023,2.825926 -0.61146,0.10601 -1.33449,0.341363 -2.57695,0.524657 -1.24245,0.183293 -3.17379,0.0864 -4.98271,-0.363952 -2.40118,-0.597801 -5.30936,-2.576247 -6.77821,-4.547205 -2.79741,-3.7536896 -2.95901,-10.8218648 0.98993,-15.3954379 3.73192,-4.3222401 7.1702,-4.1937291 9.9747,-3.2537788 1.00717,0.33756 3.71211,1.6748552 4.65756,4.6702511 0.94544,2.9953958 -0.82741,5.4967746 -0.82741,5.4967746 0,0 -2.48262,4.7082555 -6.37844,2.9118476 -4.04062,-1.8631799 -2.32165,-6.49596528 -2.32165,-6.49596528 l -0.0276,0.0558062 c 0,0 0.85807,3.79742443 3.24453,4.02957093 2.38647,0.2321469 3.81187,-2.5748788 3.69632,-4.02096055 -0.0933,-1.16792329 -0.64257,-2.94932945 -2.53922,-3.67173405 -1.96448,-0.7482378 -3.14971,-0.4976758 -4.68815,0.4471921 -1.53844,0.9448673 -4.05783,2.92733388 -4.60362,7.5768335 -0.54579,4.6494996 3.4101,7.7781646 6.50014,8.7174686 2.30953,0.702047 10.92392,0.621111 17.35508,-5.8336675 0.24861,-0.2495225 0.74641,-0.6047887 1.34864,-1.060222 1.17392,-0.8877689 2.53688,-2.2760999 3.84798,-3.6437285 0.7663,-0.7993485 5.11045,-5.4053399 8.65003,-10.0019881 1.29623,-1.683342 2.75305,-3.3594599 3.85416,-5.0161179 2.60599,-3.920801 4.38511,-7.227142 4.5766,-7.564772 m 3.23937,1.870745 c 0.097,-0.15705 0.83146,-1.347174 1.38162,-2.483522 0.68346,-1.411566 1.37587,-2.860032 2.46433,-5.175605 0.84662,-1.801106 1.65524,-3.869196 2.43346,-5.873059 2.62388,-6.756391 1.745,-4.831405 2.57616,-6.914492 1.19803,-3.002541 1.79846,-5.555094 2.00181,-6.239257 0.57835,-1.945782 1.1026,-3.951604 1.30098,-5.435049 0.0492,-0.368048 0.0687,-0.44839 0.15676,-0.956382 0.0881,-0.507984 0.0349,-0.367072 0.0709,-0.496248 0.68377,-2.454795 0.89504,-4.841693 0.85336,-6.980073 -0.0753,-3.862038 -0.97567,-6.913461 -1.40779,-8.09022 -0.21393,-0.582536 -0.37162,-1.326381 -0.83411,-2.49403 -0.46249,-1.16764 -1.51207,-2.791782 -2.80655,-4.133176 -1.7183,-1.780582 -4.88578,-3.309923 -7.3271,-3.596498 -4.6495,-0.545791 -10.85151,2.848351 -12.83787,8.555017 -1.87721,5.39306 -0.0468,8.306442 2.16949,10.265239 0.79592,0.703455 3.30653,2.377346 6.37333,1.698433 3.06682,-0.678921 4.34665,-3.46494 4.34665,-3.46494 0,0 2.83616,-4.504143 -0.66749,-6.979812 -3.63387,-2.567702 -6.78649,1.237368 -6.78649,1.237368 l 0.0345,-0.05178 c 0,0 3.7177,-1.155601 5.11198,0.795067 1.39428,1.950659 -0.32398,4.58861 -1.6341,5.211583 -1.05811,0.503141 -2.87548,0.918183 -4.44942,-0.363166 -1.63023,-1.327163 -2.00585,-2.478885 -1.95679,-4.283648 0.049,-1.804763 0.50622,-4.977852 4.25991,-7.77527 3.75369,-2.797417 8.44114,-0.935851 10.79962,1.270552 1.76276,1.649094 5.99987,9.149837 3.62544,17.94677 -0.0918,0.340065 -0.15056,0.948806 -0.24386,1.698069 -0.18187,1.460538 -0.70272,3.335052 -1.23157,5.154309 -0.30911,1.063316 -2.12594,7.128454 -4.33697,12.492144 -0.8097,1.964241 -1.53284,4.063947 -2.417,5.845865 -2.09252,4.21725 -4.06633,7.411187 -4.26298,7.745839 m 3.23976,-118.92496 c 0.097,0.15705 0.83146,1.34717 1.38162,2.48352 0.68346,1.41157 1.37587,2.86003 2.46432,5.1756 0.84663,1.80111 1.65525,3.8692 2.43346,5.87306 2.62389,6.75639 1.74501,4.83141 2.57617,6.9145 1.19802,3.00253 1.79845,5.55509 2.00181,6.23925 0.57834,1.94578 1.1026,3.9516 1.30098,5.43505 0.0492,0.36805 0.0687,0.4484 0.15675,0.95638 0.0881,0.50799 0.0349,0.36708 0.0709,0.49625 0.68377,2.4548 0.89504,4.841693 0.85336,6.980074 -0.0753,3.862042 -0.97567,6.913462 -1.4078,8.09022 -0.21391,0.58254 -0.37161,1.326385 -0.8341,2.494029 -0.46249,1.167644 -1.51207,2.791783 -2.80655,4.133181 -1.7183,1.780581 -4.88578,3.309919 -7.3271,3.596496 -4.6495,0.545789 -10.85151,-2.848356 -12.83788,-8.555019 -1.8772,-5.393063 -0.0468,-8.306438 2.1695,-10.265238 0.79592,-0.703454 3.30652,-2.377353 6.37333,-1.698433 3.06682,0.678918 4.34665,3.464938 4.34665,3.464938 0,0 2.83616,4.504143 -0.66749,6.979817 -3.63387,2.567695 -6.7865,-1.237372 -6.7865,-1.237372 l 0.0345,0.05181 c 0,0 3.7177,1.155604 5.11198,-0.795063 1.39428,-1.950665 -0.32397,-4.588614 -1.63409,-5.211585 -1.05812,-0.50314 -2.87548,-0.918183 -4.44943,0.363162 -1.63023,1.327167 -2.00585,2.478887 -1.95679,4.28365 0.0491,1.804763 0.50623,4.977855 4.25992,7.775271 3.75369,2.797417 8.44113,0.93585 10.79962,-1.270552 1.76275,-1.649091 5.99986,-9.149841 3.62543,-17.946772 -0.0918,-0.34006 -0.15056,-0.94881 -0.24386,-1.69807 -0.18187,-1.46053 -0.70272,-3.33505 -1.23157,-5.15431 -0.3091,-1.06331 -2.12594,-7.12845 -4.33696,-12.49214 -0.8097,-1.96424 -1.53285,-4.06395 -2.417,-5.84586 -2.09252,-4.21725 -4.06634,-7.41119 -4.26299,-7.74584 m 3.2398,-1.87 c -0.0875,-0.16255 -0.75096,-1.39366 -1.45998,-2.43829 -0.88073,-1.29767 -1.78893,-2.62155 -3.25005,-4.72196 -1.13649,-1.63375 -2.5232,-3.36809 -3.86949,-5.04397 -4.53926,-5.65055 -3.31161,-3.92692 -4.70004,-5.68827 -2.00126,-2.53879 -3.91162,-4.33506 -4.40245,-4.85325 -1.39592,-1.47375 -2.87089,-2.93068 -4.0564,-3.8442 -0.29413,-0.22666 -0.35399,-0.28366 -0.74987,-0.61395 -0.39589,-0.33028 -0.30045,-0.21375 -0.39433,-0.3095 -1.78403,-1.81956 -3.74551,-3.19598 -5.61824,-4.22907 -3.38227,-1.86582 -6.47507,-2.61178 -7.71023,-2.82593 -0.61146,-0.106 -1.33449,-0.34135 -2.57695,-0.52465 -1.24245,-0.18329 -3.17379,-0.0864 -4.98271,0.36395 -2.40118,0.5978 -5.30937,2.57625 -6.77821,4.54721 -2.79742,3.75368 -2.95901,10.82186 0.98993,15.39543 3.73192,4.32224 7.1702,4.19374 9.9747,3.25378 1.00717,-0.33756 3.71211,-1.67486 4.65755,-4.67025 0.94545,-2.9954 -0.8274,-5.49678 -0.8274,-5.49678 0,0 -2.48262,-4.70825 -6.37844,-2.91184 -4.04063,1.86317 -2.32165,6.49596 -2.32165,6.49596 l -0.0276,-0.0558 c 0,0 0.85807,-3.79742 3.24454,-4.02957 2.38646,-0.23215 3.81186,2.57488 3.69631,4.02096 -0.0933,1.16793 -0.64257,2.94933 -2.53922,3.67173 -1.96447,0.74824 -3.1497,0.49768 -4.68814,-0.44719 -1.53845,-0.94486 -4.05784,-2.92733 -4.60363,-7.57683 -0.54579,-4.6495 3.4101,-7.77816 6.50014,-8.71747 2.30954,-0.70204 10.92393,-0.62111 17.35508,5.83367 0.24861,0.24952 0.74641,0.60479 1.34864,1.06022 1.17393,0.88777 2.53688,2.2761 3.84798,3.64373 0.7663,0.79935 5.11045,5.40534 8.65003,10.00199 1.29623,1.68334 2.75306,3.35946 3.85417,5.01612 2.60598,3.9208 4.38511,7.22714 4.5766,7.56477 m -101.37216,-62.2682 c 0.184521,-0.006 1.582418,-0.0465 2.841605,0.0452 1.564181,0.11389 3.164794,0.23848 5.714366,0.45364 1.983115,0.16736 4.178445,0.50111 6.302948,0.82909 7.163151,1.10585 5.056621,0.90449 7.276211,1.22622 3.19928,0.46375 5.71008,1.22004 6.40426,1.38601 1.97426,0.47203 3.97348,1.02092 5.35738,1.59085 0.34334,0.14139 0.42265,0.16473 0.90663,0.34243 0.48397,0.17771 0.33534,0.15332 0.4652,0.18675 2.4678,0.63523 4.64055,1.64572 6.4716,2.751 3.30698,1.99622 5.4994,4.30169 6.30244,5.2643 0.39753,0.47653 0.96287,0.98502 1.74284,1.96937 0.77996,0.98435 1.66172,2.70538 2.17616,4.49713 0.68288,2.37839 0.42359,5.88617 -0.54889,8.1437 -1.85208,4.29948 -7.89251,7.97351 -13.8278,6.84042 -5.60914,-1.07082 -7.21698,-4.11271 -7.80521,-7.01146 -0.21125,-1.04101 -0.40559,-4.0522 1.71578,-6.36868 2.12136,-2.31648 5.17405,-2.03184 5.17405,-2.03184 0,0 5.31878,-0.20411 5.71095,4.06797 0.40675,4.43088 -4.46484,5.2586 -4.46484,5.2586 l 0.0621,-0.004 c 0,0 2.85963,-2.64182 1.86744,-4.82464 -0.99219,-2.18281 -4.13584,-2.01373 -5.33041,-1.19062 -0.96479,0.66478 -2.23291,2.03114 -1.91021,4.03489 0.33425,2.07541 1.14386,2.97657 2.73136,3.83646 1.5875,0.8599 4.56406,2.05052 8.86354,0.19844 4.29948,-1.85208 5.03104,-6.84232 4.29948,-9.98802 -0.54678,-2.35114 -4.92407,-9.77095 -13.72965,-12.11311 -0.34039,-0.0905 -0.89696,-0.34401 -1.5925,-0.63784 -1.35579,-0.57277 -3.2396,-1.05896 -5.07955,-1.51058 -1.07541,-0.26397 -7.236384,-1.72312 -12.986988,-2.49016 -2.105933,-0.2809 -4.285906,-0.70448 -6.271169,-0.82974 -4.698506,-0.29645 -8.451443,-0.18405 -8.839585,-0.18107 m 4.29e-4,-3.74075 c -0.184521,-0.006 -1.582418,-0.0465 -2.841605,0.0452 -1.564181,0.11389 -3.164794,0.23848 -5.714366,0.45364 -1.983115,0.16736 -4.178445,0.50111 -6.302948,0.82909 -7.163148,1.10585 -5.056621,0.90449 -7.276208,1.22622 -3.19929,0.46375 -5.71008,1.22004 -6.40426,1.38601 -1.97427,0.47203 -3.97349,1.02092 -5.35738,1.59085 -0.34335,0.14139 -0.42265,0.16473 -0.90663,0.34243 -0.48397,0.17771 -0.33534,0.15332 -0.4652,0.18675 -2.4678,0.63523 -4.64055,1.64572 -6.4716,2.751 -3.30698,1.99622 -5.4994,4.30169 -6.30244,5.2643 -0.39753,0.47653 -0.96287,0.98502 -1.74284,1.96937 -0.77996,0.98435 -1.66172,2.70538 -2.17616,4.49713 -0.68288,2.37839 -0.42359,5.88617 0.54889,8.1437 1.85208,4.29948 7.8925,7.97351 13.8278,6.84042 5.60913,-1.07082 7.21698,-4.11271 7.80521,-7.01146 0.21125,-1.04101 0.40558,-4.0522 -1.71578,-6.36868 -2.12137,-2.31648 -5.17405,-2.03184 -5.17405,-2.03184 0,0 -5.31878,-0.20411 -5.71095,4.06797 -0.40676,4.43088 4.46484,5.2586 4.46484,5.2586 l -0.0621,-0.004 c 0,0 -2.85963,-2.64182 -1.86744,-4.82464 0.99218,-2.18281 4.13584,-2.01373 5.33041,-1.19062 0.96479,0.66478 2.23291,2.03114 1.9102,4.03489 -0.33424,2.07541 -1.14385,2.97657 -2.73135,3.83646 -1.5875,0.8599 -4.56406,2.05052 -8.86354,0.19844 -4.29948,-1.85208 -5.03104,-6.84232 -4.29948,-9.98802 0.54678,-2.35114 4.92406,-9.77095 13.72964,-12.11311 0.3404,-0.0905 0.89697,-0.34401 1.5925,-0.63784 1.3558,-0.57277 3.2396,-1.05896 5.07955,-1.51058 1.07541,-0.26397 7.236391,-1.72312 12.986995,-2.49016 2.105933,-0.2809 4.285906,-0.70448 6.271169,-0.82974 4.698506,-0.29645 8.451443,-0.18405 8.839585,-0.18107 m -104.611919,56.65676 c 0.0875,-0.16255 0.750956,-1.39365 1.459982,-2.43828 0.880723,-1.29767 1.788925,-2.62155 3.250045,-4.72196 1.136491,-1.63376 2.523198,-3.36809 3.869488,-5.04397 4.539263,-5.65055 3.311618,-3.92692 4.700043,-5.68827 2.001261,-2.53879 3.9116246,-4.33506 4.4024506,-4.85325 1.3959222,-1.47375 2.870887,-2.93068 4.0564019,-3.84421 0.2941249,-0.22664 0.353985,-0.28366 0.7498708,-0.61394 0.3958858,-0.33028 0.3004474,-0.21376 0.3943284,-0.30951 1.7840287,-1.81955 3.74550574,-3.19597 5.6182391,-4.22906 3.382268,-1.86582 6.4750664,-2.61178 7.7102323,-2.82593 0.6114549,-0.10601 1.3344919,-0.34136 2.5769459,-0.52465 1.242455,-0.1833 3.17379,-0.0864 4.982714,0.36395 2.401178,0.5978 5.309362,2.57625 6.778206,4.5472 2.797416,3.75369 2.959009,10.82187 -0.989925,15.39544 -3.731926,4.32224 -7.170198,4.19373 -9.974705,3.25378 -1.007169,-0.33756 -3.7121066,-1.67485 -4.6575524,-4.67025 -0.9454458,-2.9954 0.827401,-5.49678 0.827401,-5.49678 0,0 2.4826244,-4.70825 6.3784424,-2.91184 4.040626,1.86318 2.321654,6.49596 2.321654,6.49596 l 0.0276,-0.0558 c 0,0 -0.858068,-3.79743 -3.244533,-4.02957 -2.386464,-0.23215 -3.811869,2.57487 -3.696318,4.02096 0.09332,1.16792 0.64257,2.94933 2.53922,3.67173 1.964476,0.74824 3.149705,0.49768 4.688146,-0.44719 1.538442,-0.94487 4.057835,-2.92734 4.603624,-7.57684 0.545788,-4.64949 -3.4101,-7.77816 -6.500141,-8.71746 -2.309533,-0.70205 -10.9239243,-0.62112 -17.3550792,5.83366 -0.2486084,0.24953 -0.7464092,0.60479 -1.3486417,1.06023 -1.1739211,0.88776 -2.5368793,2.2761 -3.8479751,3.64372 -0.7663058,0.79935 -5.110451,5.40534 -8.65003,10.00199 -1.296233,1.68334 -2.753058,3.35946 -3.854167,5.01612 -2.605985,3.9208 -4.38511,7.22714 -4.576601,7.56477 m -3.239367,-1.87074 c -0.09702,0.15705 -0.831462,1.34717 -1.381624,2.48352 -0.683457,1.41157 -1.375868,2.86003 -2.464321,5.1756 -0.846624,1.80111 -1.655247,3.8692 -2.433459,5.87306 -2.623884,6.75639 -1.745004,4.83141 -2.576165,6.9145 -1.198027,3.00254 -1.798456,5.55509 -2.00181,6.23925 -0.578347,1.94578 -1.102601,3.95161 -1.300979,5.43505 -0.04922,0.36805 -0.06867,0.44839 -0.156757,0.95638 -0.08809,0.50799 -0.03489,0.36707 -0.07087,0.49625 -0.683771,2.4548 -0.895043,4.841694 -0.853359,6.980074 0.07529,3.862038 0.975666,6.913461 1.407792,8.09022 0.213922,0.582536 0.371619,1.326381 0.834106,2.49403 0.462493,1.16764 1.51207,2.791782 2.806552,4.133176 1.718299,1.780582 4.885774,3.309923 7.327097,3.596498 4.649497,0.545791 10.851511,-2.848351 12.837876,-8.555017 1.877206,-5.39306 0.04678,-8.306442 -2.169496,-10.265239 -0.79592,-0.703455 -3.306524,-2.377342 -6.373332,-1.698432 -3.066814,0.67892 -4.346648,3.464939 -4.346648,3.464939 0,0 -2.836156,4.504143 0.66749,6.979812 3.63387,2.567702 6.786496,-1.237368 6.786496,-1.237368 l -0.03452,0.05178 c 0,0 -3.717699,1.155601 -5.111975,-0.795067 -1.394281,-1.950659 0.323973,-4.58861 1.634093,-5.211583 1.058114,-0.503141 2.87548,-0.918183 4.449423,0.363166 1.630233,1.327163 2.005854,2.478885 1.956795,4.283648 -0.04906,1.804763 -0.506227,4.977852 -4.259918,7.77527 -3.753691,2.797417 -8.441138,0.935851 -10.79962,-1.270552 -1.762755,-1.649094 -5.999862,-9.149837 -3.625437,-17.946766 0.09179,-0.34007 0.150559,-0.94881 0.243858,-1.69807 0.181875,-1.46054 0.702721,-3.33505 1.231574,-5.15431 0.309104,-1.06332 2.125939,-7.12846 4.336963,-12.49215 0.809701,-1.96424 1.532849,-4.06394 2.417003,-5.84586 2.09252,-4.21725 4.066333,-7.41119 4.262983,-7.74584 m -3.239761,118.924962 c -0.09702,-0.15705 -0.831462,-1.347174 -1.381623,-2.483522 -0.683458,-1.411566 -1.375869,-2.860031 -2.464321,-5.175605 -0.846624,-1.801105 -1.655247,-3.869195 -2.43346,-5.873059 -2.623883,-6.756389 -1.745003,-4.831405 -2.576164,-6.914491 -1.198025,-3.002537 -1.798456,-5.555094 -2.00181,-6.239258 -0.578346,-1.94578 -1.1026,-3.951601 -1.300981,-5.435051 -0.04922,-0.368042 -0.06867,-0.448391 -0.156755,-0.956378 -0.08809,-0.507988 -0.03489,-0.367074 -0.07088,-0.496252 -0.68377,-2.454794 -0.895041,-4.841689 -0.853357,-6.98007 0.07528,-3.862042 0.975665,-6.913462 1.407792,-8.09022 0.21392,-0.58254 0.371617,-1.326385 0.834107,-2.494029 0.462491,-1.167644 1.512069,-2.791783 2.806548,-4.133181 1.7183,-1.780581 4.885777,-3.309919 7.327098,-3.596496 4.649499,-0.545789 10.851515,2.848356 12.837878,8.555019 1.877207,5.393063 0.04678,8.306438 -2.169497,10.265238 -0.79592,0.703454 -3.306521,2.37735 -6.373332,1.698433 -3.066812,-0.678918 -4.346646,-3.464938 -4.346646,-3.464938 0,0 -2.836157,-4.504143 0.667487,-6.979817 3.633874,-2.567695 6.786498,1.237372 6.786498,1.237372 l -0.03453,-0.05181 c 0,0 -3.7177,-1.155604 -5.111977,0.795063 -1.394277,1.950665 0.323976,4.588614 1.634095,5.211585 1.058113,0.50314 2.875479,0.918183 4.449425,-0.363162 1.630231,-1.327167 2.005852,-2.478887 1.956793,-4.28365 -0.04906,-1.804763 -0.506228,-4.977855 -4.259918,-7.775271 -3.753691,-2.797417 -8.441138,-0.93585 -10.79962,1.270552 -1.762757,1.649091 -5.99986,9.149841 -3.625435,17.946774 0.09179,0.340062 0.150558,0.948803 0.243858,1.698068 0.18187,1.46053 0.702721,3.335052 1.231574,5.154309 0.309103,1.063314 2.125936,7.12845 4.336961,12.49214 0.8097,1.964241 1.532848,4.063948 2.417002,5.845865 2.092521,4.21725 4.066333,7.411188 4.262984,7.745839 m -3.239796,1.870002 c 0.0875,0.16255 0.750956,1.393654 1.459981,2.438282 0.880724,1.297674 1.788926,2.621553 3.250045,4.721967 1.136491,1.6337506 2.523198,3.3680837 3.869489,5.0439672 4.539264,5.65054567 3.311617,3.9269198 4.700043,5.68827 2.001263,2.5387924 3.9116241,4.3350553 4.4024501,4.8532468 1.3959232,1.473754 2.8708885,2.9306828 4.0564004,3.8442057 0.2941284,0.2266513 0.3539845,0.2836612 0.7498733,0.6139466 0.3958838,0.3302769 0.3004464,0.2137545 0.3943259,0.3095026 1.7840297,1.8195601 3.74550774,3.1959761 5.6182411,4.2290671 3.3822655,1.86582 6.4750659,2.611779 7.7102323,2.825926 0.6114519,0.106006 1.3344889,0.341359 2.5769459,0.524658 1.242453,0.183289 3.17379,0.0864 4.982712,-0.363957 2.401179,-0.5978 5.309364,-2.576243 6.778207,-4.547203 2.797417,-3.7536876 2.959011,-10.8218602 -0.989924,-15.3954358 -3.731924,-4.3222376 -7.1702,-4.1937334 -9.974706,-3.2537805 -1.00717,0.3375591 -3.7121036,1.6748604 -4.6575524,4.670251 -0.9454438,2.9953993 0.8274025,5.4967773 0.8274025,5.4967773 0,0 2.4826239,4.7082546 6.3784399,2.9118432 4.04063,-1.863173 2.321656,-6.49596182 2.321656,-6.49596182 l 0.02758,0.0557802 c 0,0 -0.858069,3.79742274 -3.244535,4.02956744 -2.386461,0.232153 -3.811867,-2.5748745 -3.696317,-4.02095793 0.09332,-1.16792415 0.64257,-2.94933027 2.539223,-3.67172977 1.964473,-0.7482421 3.149704,-0.4976783 4.688145,0.4471895 1.538442,0.9448674 4.057833,2.92733133 4.603622,7.5768318 0.545789,4.6495004 -3.410098,7.7781664 -6.50014,8.7174694 C 13.950852,14.349282 5.3364647,14.268353 -1.0946902,7.813574 -1.3433001,7.564049 -1.8411009,7.2087827 -2.4433319,6.7533521 -3.6172575,5.8655753 -4.9802112,4.4772522 -6.2913075,3.1096227 -7.0576138,2.3102733 -11.40176,-2.2957207 -14.94134,-6.8923689 c -1.296232,-1.6833419 -2.753057,-3.3594591 -3.854166,-5.0161181 -2.605986,-3.920801 -4.38511,-7.227141 -4.576602,-7.564772"
             id="path5860"
             sodipodi:nodetypes="csssssszssszsssszcsccsssssssssssc"
             inkscape:original-d="m 78.00005,42.794938 c -0.184521,0.0055 -1.582418,0.04648 -2.841605,-0.04524 C 73.594264,42.635806 71.993651,42.511219 69.444079,42.29606 67.460964,42.128705 65.265634,41.794948 63.141131,41.466968 55.977985,40.361123 58.08451,40.562483 55.864924,40.240746 52.665638,39.776998 50.154843,39.020708 49.460663,38.854736 47.486395,38.382708 45.487176,37.833815 44.10328,37.263893 43.759937,37.122496 43.680629,37.099164 43.196655,36.921457 42.712681,36.74375 42.861313,36.76814 42.73145,36.734712 c -2.467798,-0.635235 -4.640546,-1.645717 -6.471596,-2.751006 -3.306985,-1.996218 -5.499401,-4.301682 -6.30244,-5.264294 -0.397535,-0.47653 -0.962875,-0.985022 -1.742839,-1.969372 -0.779964,-0.984351 -1.661721,-2.705382 -2.176166,-4.497133 -0.682878,-2.378382 -0.423585,-5.886166 0.548892,-8.143701 1.852083,-4.2994782 7.892506,-7.9735091 13.827803,-6.8404192 5.609133,1.070823 7.216975,4.1127092 7.805208,7.0114592 0.211249,1.041014 0.405586,4.052206 -1.71578,6.368684 -2.121366,2.316478 -5.174047,2.031837 -5.174047,2.031837 0,0 -5.318781,0.204112 -5.710955,-4.067969 -0.406752,-4.430875 4.464844,-5.258594 4.464844,-5.258594 l -0.06213,0.004 c 0,0 -2.859632,2.641821 -1.867444,4.824634 0.992187,2.182812 4.135845,2.013736 5.330413,1.190625 0.964789,-0.664783 2.232909,-2.031147 1.910205,-4.034896 -0.334245,-2.075405 -1.143853,-2.976563 -2.731353,-3.836458 -1.5875,-0.859896 -4.564063,-2.0505212 -8.863542,-0.198438 -4.299479,1.852083 -5.031038,6.842315 -4.299479,9.988021 0.546776,2.351138 4.924064,9.770952 13.729644,12.113106 0.340397,0.09054 0.896967,0.344015 1.5925,0.637847 1.355791,0.572761 3.2396,1.058952 5.079549,1.51058 1.075409,0.263966 7.236387,1.72311 12.986991,2.490152 2.105933,0.280899 4.285906,0.704488 6.271169,0.829747 4.698506,0.296449 8.451443,0.184046 8.839585,0.181067" />
        </g>
        <path
           style="fill:#dae7f4;fill-opacity:1;fill-rule:nonzero;stroke-width:6.18371;paint-order:stroke markers fill"
           id="path14701"
           d="m 214.31953,462.73352 c 0,2.48492 -2.01443,4.49935 -4.49935,4.49935 -2.48493,0 -4.49936,-2.01443 -4.49936,-4.49935 0,-2.48492 2.01443,-4.49935 4.49936,-4.49935 2.48492,0 4.49935,2.01443 4.49935,4.49935 z m 0,98.53331 c 0,-2.48492 -2.01443,-4.49935 -4.49935,-4.49935 -2.48493,0 -4.49936,2.01443 -4.49936,4.49935 0,2.48492 2.01443,4.49935 4.49936,4.49935 2.48492,0 4.49935,-2.01443 4.49935,-4.49935 z m 106.17421,183.89878 c 2.15201,1.24246 2.88934,3.99422 1.64688,6.14623 -1.24246,2.15201 -3.99422,2.88934 -6.14623,1.64688 -2.15201,-1.24246 -2.88934,-3.99422 -1.64688,-6.14623 1.24246,-2.15201 3.99422,-2.88934 6.14623,-1.64688 z m 85.33235,49.26666 c -2.15201,-1.24246 -4.90377,-0.50513 -6.14623,1.64687 -1.24246,2.15201 -0.50513,4.90377 1.64688,6.14623 2.15201,1.24247 4.90377,0.50513 6.14623,-1.64687 1.24246,-2.15201 0.50513,-4.90377 -1.64688,-6.14623 z m 212.34812,-1.8e-4 c 2.15201,-1.24246 4.90377,-0.50513 6.14623,1.64688 1.24246,2.15201 0.50513,4.90377 -1.64687,6.14623 -2.15201,1.24246 -4.90377,0.50513 -6.14623,-1.64688 -1.24246,-2.15201 -0.50513,-4.90377 1.64687,-6.14623 z m 85.33235,-49.26665 c -2.152,1.24246 -2.88933,3.99422 -1.64687,6.14622 1.24246,2.15201 3.99422,2.88934 6.14623,1.64688 2.152,-1.24246 2.88933,-3.99422 1.64687,-6.14623 -1.24246,-2.152 -3.99422,-2.88934 -6.14623,-1.64687 z M 809.68047,561.26648 c 0,-2.48492 2.01443,-4.49935 4.49935,-4.49935 2.48493,0 4.49936,2.01443 4.49936,4.49935 0,2.48492 -2.01443,4.49935 -4.49936,4.49935 -2.48492,0 -4.49935,-2.01443 -4.49935,-4.49935 z m 0,-98.53331 c 0,2.48492 2.01443,4.49935 4.49935,4.49935 2.48493,0 4.49936,-2.01443 4.49936,-4.49935 0,-2.48492 -2.01443,-4.49935 -4.49936,-4.49935 -2.48492,0 -4.49935,2.01443 -4.49935,4.49935 z M 703.50626,278.83439 c -2.15201,-1.24246 -2.88934,-3.99422 -1.64688,-6.14623 1.24246,-2.15201 3.99422,-2.88934 6.14623,-1.64688 2.15201,1.24246 2.88934,3.99422 1.64688,6.14623 -1.24246,2.15201 -3.99422,2.88934 -6.14623,1.64688 z m -85.33235,-49.26666 c 2.15201,1.24246 4.90377,0.50513 6.14623,-1.64687 1.24246,-2.15201 0.50513,-4.90377 -1.64688,-6.14623 -2.15201,-1.24247 -4.90377,-0.50513 -6.14623,1.64687 -1.24246,2.15201 -0.50513,4.90377 1.64688,6.14623 z m -212.34812,1.8e-4 c -2.15201,1.24246 -4.90377,0.50513 -6.14623,-1.64688 -1.24246,-2.15201 -0.50513,-4.90377 1.64687,-6.14623 2.15201,-1.24246 4.90377,-0.50513 6.14623,1.64688 1.24246,2.15201 0.50513,4.90377 -1.64687,6.14623 z m -85.33235,49.26665 c 2.152,-1.24246 2.88933,-3.99422 1.64687,-6.14622 -1.24246,-2.15201 -3.99422,-2.88934 -6.14623,-1.64688 -2.152,1.24246 -2.88933,3.99422 -1.64687,6.14623 1.24246,2.152 3.99422,2.88934 6.14623,1.64687 z"
           sodipodi:type="arc"
           sodipodi:ry="4.4993515"
           sodipodi:rx="4.4993515"
           sodipodi:cy="462.73352"
           sodipodi:cx="209.82018"
           inkscape:path-effect="#path-effect2228;#path-effect2534"
           class="UnoptimicedTransforms" />
        <path
           style="fill:#d9dae7;fill-opacity:1;stroke:none;stroke-width:1.02992px;stroke-linecap:butt;stroke-linejoin:miter;stroke-opacity:1"
           d="m 102.17061,512.00001 13.6061,-53.88513 c 0,0 1.6398,-1.6439 1.8516,6.01508 0.10401,3.76097 0.49108,11.17067 1.76083,16.05775 1.15524,4.44631 1.80136,8.61502 2.83301,11.15294 2.99203,7.36061 9.80179,20.65936 9.80179,20.65936 z m 0,3.3e-4 13.6061,53.88513 c 0,0 1.6398,1.6439 1.8516,-6.01508 0.10401,-3.76097 0.49108,-11.17067 1.76083,-16.05775 1.15524,-4.44631 1.80136,-8.61502 2.83301,-11.15294 2.99203,-7.36061 9.80179,-20.65936 9.80179,-20.65936 z m 204.9147,354.92233 -39.86284,-38.7258 c 0,0 -0.60376,-2.24205 6.13501,1.40401 3.3091,1.79041 9.91963,5.16005 14.78684,6.50395 4.42824,1.22269 8.3615,2.74749 11.07523,3.12301 7.87049,1.08914 22.79243,1.84109 22.79243,1.84109 z m 2.9e-4,1.6e-4 53.46894,15.15934 c 0,0 2.24356,-0.59816 -4.28341,-4.61107 -3.20509,-1.97056 -9.42854,-6.01062 -13.026,-9.5538 -3.273,-3.22362 -6.56015,-5.86753 -8.24223,-8.02993 -4.87846,-6.27148 -12.99063,-18.81828 -12.99063,-18.81828 z m 409.8291,-1.7e-4 -53.46894,15.15933 c 0,0 -2.24356,-0.59815 4.28341,-4.61107 3.20509,-1.97056 9.42855,-6.01062 13.02601,-9.5538 3.273,-3.22362 6.56014,-5.86753 8.24222,-8.02993 4.87846,-6.27147 12.99064,-18.81827 12.99064,-18.81827 z m 2.9e-4,-1.7e-4 39.86284,-38.72579 c 0,0 0.60376,-2.24206 -6.13501,1.40401 -3.3091,1.79041 -9.91962,5.16004 -14.78683,6.50395 -4.42824,1.22269 -8.36151,2.74748 -11.07524,3.12301 -7.87049,1.08913 -22.79242,1.84108 -22.79242,1.84108 z m 204.9144,-354.9225 -13.6061,53.88513 c 0,0 -1.6398,1.6439 -1.8516,-6.01508 -0.10401,-3.76097 -0.49108,-11.17067 -1.76083,-16.05775 -1.15524,-4.44631 -1.80136,-8.61502 -2.83301,-11.15294 -2.99203,-7.36061 -9.80179,-20.65936 -9.80179,-20.65936 z m 0,-3.3e-4 -13.6061,-53.88513 c 0,0 -1.6398,-1.6439 -1.8516,6.01508 -0.10401,3.76097 -0.49108,11.17067 -1.76083,16.05775 -1.15524,4.44631 -1.80136,8.61502 -2.83301,11.15294 -2.99203,7.36061 -9.80179,20.65936 -9.80179,20.65936 z m -204.9147,-354.92233 39.86284,38.7258 c 0,0 0.60376,2.24205 -6.13501,-1.40401 -3.3091,-1.79041 -9.91963,-5.16005 -14.78684,-6.50395 -4.42824,-1.22269 -8.3615,-2.74749 -11.07523,-3.12301 -7.87049,-1.08914 -22.79243,-1.84109 -22.79243,-1.84109 z m -2.9e-4,-1.6e-4 -53.46894,-15.15934 c 0,0 -2.24356,0.59816 4.28341,4.61107 3.20509,1.97056 9.42854,6.01062 13.026,9.5538 3.273,3.22362 6.56015,5.86753 8.24223,8.02993 4.87846,6.27148 12.99063,18.81828 12.99063,18.81828 z m -409.8291,1.7e-4 53.46894,-15.15933 c 0,0 2.24356,0.59815 -4.28341,4.61107 -3.20509,1.97056 -9.42855,6.01062 -13.02601,9.5538 -3.273,3.22362 -6.56014,5.86753 -8.24222,8.02993 -4.87846,6.27147 -12.99064,18.81827 -12.99064,18.81827 z m -2.9e-4,1.7e-4 -39.86284,38.72579 c 0,0 -0.60376,2.24206 6.13501,-1.40401 3.3091,-1.79041 9.91962,-5.16004 14.78683,-6.50395 4.42824,-1.22269 8.36151,-2.74748 11.07524,-3.12301 7.87049,-1.08913 22.79242,-1.84108 22.79242,-1.84108 z"
           id="path6683"
           sodipodi:nodetypes="ccssscc"
           inkscape:original-d="m 102.17061,512.00001 13.6061,-53.88513 c 0,0 1.6398,-1.6439 1.8516,6.01508 0.10401,3.76097 0.49108,11.17067 1.76083,16.05775 1.15524,4.44631 1.80136,8.61502 2.83301,11.15294 2.99203,7.36061 9.80179,20.65936 9.80179,20.65936 z"
           inkscape:path-effect="#path-effect9672;#path-effect9721"
           class="UnoptimicedTransforms" />
        <g
           id="g1418"
           style="display:none"
           transform="translate(0,46.152109)">
          <path
             style="fill:none;stroke:#000000;stroke-width:0.778525;stroke-linecap:butt;stroke-linejoin:miter;stroke-dasharray:none;stroke-opacity:1"
             d="m 511.90535,284.23387 v 78.25962 l -68.78418,-39.66443"
             id="path456" />
          <path
             style="fill:none;stroke:#000000;stroke-width:0.778525;stroke-linecap:butt;stroke-linejoin:miter;stroke-dasharray:none;stroke-opacity:1"
             d="m 469.84669,259.96761 v 78.25962 L 401.06251,298.5628"
             id="path456-3" />
          <path
             style="fill:none;stroke:#000000;stroke-width:0.778525;stroke-linecap:butt;stroke-linejoin:miter;stroke-dasharray:none;stroke-opacity:1"
             d="m 401.98491,299.10907 67.85706,39.12981 -68.78417,39.66444"
             id="path1158" />
        </g>
      </g>
    </g>
  </g>
</svg>
